mtllib ruins_parts.mtl
o Floor_Slab
usemtl concrete
v -1.18293 0.20778 1.32014
v -1.15722 0.42493 1.34432
v -1.74688 0.48597 -0.57843
vt 0.46205 0.07272
vt 0.47051 0.14873
vt -0.20245 0.17009
vn -0.9523 0.0799 0.2946
f 1/1/1 2/2/1 3/3/1
v 0.72905 0.27819 -1.34432
v -1.18293 0.20778 1.32014
v -1.74688 0.48597 -0.57843
vt 0.25517 -0.47051
vt -0.41402 0.46205
vt -0.61141 -0.20245
vn -0.1168 -0.9870 -0.1099
f 4/4/2 5/5/2 6/6/2
v -1.74688 0.48597 -0.57843
v -1.15722 0.42493 1.34432
v -1.72117 0.70312 -0.55425
vt -0.20245 0.17009
vt 0.47051 0.14873
vt -0.19399 0.24609
vn -0.9523 0.0799 0.2946
f 7/7/3 8/8/3 9/9/3
v -1.72117 0.70312 -0.55425
v 0.72905 0.27819 -1.34432
v -1.74688 0.48597 -0.57843
vt -0.60241 0.24609
vt 0.25517 0.09737
vt -0.61141 0.17009
vn -0.2820 0.1391 -0.9493
f 10/10/4 11/11/4 12/12/4
v -1.18293 0.20778 1.32014
v 1.31871 0.21715 0.57843
v -1.15722 0.42493 1.34432
vt -0.41402 0.07272
vt 0.46155 0.07600
vt -0.40503 0.14873
vn 0.2820 -0.1391 0.9493
f 13/13/5 14/14/5 15/15/5
v 1.29301 0.00000 0.55425
v -1.18293 0.20778 1.32014
v 0.72905 0.27819 -1.34432
vt 0.45255 0.19399
vt -0.41402 0.46205
vt 0.25517 -0.47051
vn -0.1168 -0.9870 -0.1099
f 16/16/6 17/17/6 18/18/6
v 1.29301 0.00000 0.55425
v 1.31871 0.21715 0.57843
v -1.18293 0.20778 1.32014
vt 0.45255 0.00000
vt 0.46155 0.07600
vt -0.41402 0.07272
vn 0.2820 -0.1391 0.9493
f 19/19/7 20/20/7 21/21/7
v -1.15722 0.42493 1.34432
v 1.31871 0.21715 0.57843
v -1.72117 0.70312 -0.55425
vt -0.40503 0.47051
vt 0.46155 0.20245
vt -0.60241 -0.19399
vn 0.1168 0.9870 0.1099
f 22/22/8 23/23/8 24/24/8
v 0.75476 0.49534 -1.32014
v 0.72905 0.27819 -1.34432
v -1.72117 0.70312 -0.55425
vt 0.26417 0.17337
vt 0.25517 0.09737
vt -0.60241 0.24609
vn -0.2820 0.1391 -0.9493
f 25/25/9 26/26/9 27/27/9
v -1.72117 0.70312 -0.55425
v 1.31871 0.21715 0.57843
v 0.75476 0.49534 -1.32014
vt -0.60241 -0.19399
vt 0.46155 0.20245
vt 0.26417 -0.46205
vn 0.1168 0.9870 0.1099
f 28/28/10 29/29/10 30/30/10
v 0.75476 0.49534 -1.32014
v 1.29301 0.00000 0.55425
v 0.72905 0.27819 -1.34432
vt -0.46205 0.17337
vt 0.19399 0.00000
vt -0.47051 0.09737
vn 0.9523 -0.0799 -0.2946
f 31/31/11 32/32/11 33/33/11
v 1.31871 0.21715 0.57843
v 1.29301 0.00000 0.55425
v 0.75476 0.49534 -1.32014
vt 0.20245 0.07600
vt 0.19399 0.00000
vt -0.46205 0.17337
vn 0.9523 -0.0799 -0.2946
f 34/34/12 35/35/12 36/36/12
v 1.21149 0.01156 -0.24507
v 1.21149 0.23156 -0.24507
v 0.82496 0.01156 -0.70398
vt -0.08577 0.00405
vt -0.08577 0.08105
vt -0.24639 0.00405
vn -0.7648 0.0000 0.6442
f 37/37/13 38/38/13 39/39/13
v 1.36035 0.01156 -1.15493
v 1.21149 0.01156 -0.24507
v 0.82496 0.01156 -0.70398
vt 0.47612 -0.40423
vt 0.42402 -0.08577
vt 0.28873 -0.24639
vn 0.0000 -1.0000 0.0000
f 40/40/14 41/41/14 42/42/14
v 0.82496 0.01156 -0.70398
v 1.21149 0.23156 -0.24507
v 0.82496 0.23156 -0.70398
vt -0.24639 0.00405
vt -0.08577 0.08105
vt -0.24639 0.08105
vn -0.7648 0.0000 0.6442
f 43/43/15 44/44/15 45/45/15
v 0.82496 0.23156 -0.70398
v 1.36035 0.01156 -1.15493
v 0.82496 0.01156 -0.70398
vt 0.28873 0.08105
vt 0.47612 0.00405
vt 0.28873 0.00405
vn -0.6442 0.0000 -0.7648
f 46/46/16 47/47/16 48/48/16
v 1.21149 0.01156 -0.24507
v 1.74688 0.23156 -0.69602
v 1.21149 0.23156 -0.24507
vt 0.42402 0.00405
vt 0.61141 0.08105
vt 0.42402 0.08105
vn 0.6442 0.0000 0.7648
f 49/49/17 50/50/17 51/51/17
v 1.74688 0.01156 -0.69602
v 1.21149 0.01156 -0.24507
v 1.36035 0.01156 -1.15493
vt 0.61141 -0.24361
vt 0.42402 -0.08577
vt 0.47612 -0.40423
vn 0.0000 -1.0000 0.0000
f 52/52/18 53/53/18 54/54/18
v 1.74688 0.01156 -0.69602
v 1.74688 0.23156 -0.69602
v 1.21149 0.01156 -0.24507
vt 0.61141 0.00405
vt 0.61141 0.08105
vt 0.42402 0.00405
vn 0.6442 0.0000 0.7648
f 55/55/19 56/56/19 57/57/19
v 1.21149 0.23156 -0.24507
v 1.74688 0.23156 -0.69602
v 0.82496 0.23156 -0.70398
vt 0.42402 -0.08577
vt 0.61141 -0.24361
vt 0.28873 -0.24639
vn 0.0000 1.0000 0.0000
f 58/58/20 59/59/20 60/60/20
v 1.36035 0.23156 -1.15493
v 1.36035 0.01156 -1.15493
v 0.82496 0.23156 -0.70398
vt 0.47612 0.08105
vt 0.47612 0.00405
vt 0.28873 0.08105
vn -0.6442 0.0000 -0.7648
f 61/61/21 62/62/21 63/63/21
v 0.82496 0.23156 -0.70398
v 1.74688 0.23156 -0.69602
v 1.36035 0.23156 -1.15493
vt 0.28873 -0.24639
vt 0.61141 -0.24361
vt 0.47612 -0.40423
vn 0.0000 1.0000 0.0000
f 64/64/22 65/65/22 66/66/22
v 1.36035 0.23156 -1.15493
v 1.74688 0.01156 -0.69602
v 1.36035 0.01156 -1.15493
vt -0.40423 0.08105
vt -0.24361 0.00405
vt -0.40423 0.00405
vn 0.7648 0.0000 -0.6442
f 67/67/23 68/68/23 69/69/23
v 1.74688 0.23156 -0.69602
v 1.74688 0.01156 -0.69602
v 1.36035 0.23156 -1.15493
vt -0.24361 0.08105
vt -0.24361 0.00405
vt -0.40423 0.08105
vn 0.7648 0.0000 -0.6442
f 70/70/24 71/71/24 72/72/24