mtllib ruins_parts.mtl
o Rebar_Cluster
usemtl concrete
v -0.45212 0.00000 0.25000
v -0.45212 0.18000 0.25000
v -0.45212 0.00000 -0.25000
vt 0.08750 0.00000
vt 0.08750 0.06300
vt -0.08750 0.00000
vn -1.0000 0.0000 0.0000
f 1/1/1 2/2/1 3/3/1
v 0.04788 0.00000 -0.25000
v -0.45212 0.00000 0.25000
v -0.45212 0.00000 -0.25000
vt 0.01676 -0.08750
vt -0.15824 0.08750
vt -0.15824 -0.08750
vn 0.0000 -1.0000 0.0000
f 4/4/2 5/5/2 6/6/2
v -0.45212 0.00000 -0.25000
v -0.45212 0.18000 0.25000
v -0.45212 0.18000 -0.25000
vt -0.08750 0.00000
vt 0.08750 0.06300
vt -0.08750 0.06300
vn -1.0000 0.0000 0.0000
f 7/7/3 8/8/3 9/9/3
v -0.45212 0.18000 -0.25000
v 0.04788 0.00000 -0.25000
v -0.45212 0.00000 -0.25000
vt -0.15824 0.06300
vt 0.01676 0.00000
vt -0.15824 0.00000
vn 0.0000 0.0000 -1.0000
f 10/10/4 11/11/4 12/12/4
v -0.45212 0.00000 0.25000
v 0.04788 0.18000 0.25000
v -0.45212 0.18000 0.25000
vt -0.15824 0.00000
vt 0.01676 0.06300
vt -0.15824 0.06300
vn 0.0000 0.0000 1.0000
f 13/13/5 14/14/5 15/15/5
v 0.04788 0.00000 0.25000
v -0.45212 0.00000 0.25000
v 0.04788 0.00000 -0.25000
vt 0.01676 0.08750
vt -0.15824 0.08750
vt 0.01676 -0.08750
vn 0.0000 -1.0000 0.0000
f 16/16/6 17/17/6 18/18/6
v 0.04788 0.00000 0.25000
v 0.04788 0.18000 0.25000
v -0.45212 0.00000 0.25000
vt 0.01676 0.00000
vt 0.01676 0.06300
vt -0.15824 0.00000
vn 0.0000 0.0000 1.0000
f 19/19/7 20/20/7 21/21/7
v -0.45212 0.18000 0.25000
v 0.04788 0.18000 0.25000
v -0.45212 0.18000 -0.25000
vt -0.15824 0.08750
vt 0.01676 0.08750
vt -0.15824 -0.08750
vn 0.0000 1.0000 0.0000
f 22/22/8 23/23/8 24/24/8
v 0.04788 0.18000 -0.25000
v 0.04788 0.00000 -0.25000
v -0.45212 0.18000 -0.25000
vt 0.01676 0.06300
vt 0.01676 0.00000
vt -0.15824 0.06300
vn 0.0000 0.0000 -1.0000
f 25/25/9 26/26/9 27/27/9
v -0.45212 0.18000 -0.25000
v 0.04788 0.18000 0.25000
v 0.04788 0.18000 -0.25000
vt -0.15824 -0.08750
vt 0.01676 0.08750
vt 0.01676 -0.08750
vn 0.0000 1.0000 0.0000
f 28/28/10 29/29/10 30/30/10
v 0.04788 0.18000 -0.25000
v 0.04788 0.00000 0.25000
v 0.04788 0.00000 -0.25000
vt -0.08750 0.06300
vt 0.08750 0.00000
vt -0.08750 0.00000
vn 1.0000 0.0000 0.0000
f 31/31/11 32/32/11 33/33/11
v 0.04788 0.18000 0.25000
v 0.04788 0.00000 0.25000
v 0.04788 0.18000 -0.25000
vt 0.08750 0.06300
vt 0.08750 0.00000
vt -0.08750 0.06300
vn 1.0000 0.0000 0.0000
f 34/34/12 35/35/12 36/36/12
usemtl rebar
v -0.24605 0.15106 0.08323
v -0.23776 0.15000 0.10358
v -0.25955 0.15053 0.10059
vt -0.08612 0.02913
vt -0.08322 0.03625
vt -0.09084 0.03521
vn -0.0181 -0.9988 -0.0444
f 37/37/13 38/38/13 39/39/13
v -0.24605 0.15106 0.08323
v -0.25955 0.15053 0.10059
v -0.23123 0.96955 0.11962
vt 0.02913 0.05287
vt 0.03521 0.05268
vt 0.04187 0.33934
vn -0.7893 0.0415 -0.6126
f 40/40/14 41/41/14 42/42/14
v -0.23123 0.96955 0.11962
v -0.25955 0.15053 0.10059
v -0.24473 0.96902 0.13698
vt 0.04187 0.33934
vt 0.03521 0.05268
vt 0.04794 0.33916
vn -0.7893 0.0415 -0.6126
f 43/43/15 44/44/15 45/45/15
v -0.23123 0.96955 0.11962
v -0.24473 0.96902 0.13698
v -0.22294 0.96849 0.13998
vt -0.08093 0.04187
vt -0.08566 0.04794
vt -0.07803 0.04899
vn 0.0181 0.9988 0.0444
f 46/46/16 47/47/16 48/48/16
v -0.25955 0.15053 0.10059
v -0.23776 0.15000 0.10358
v -0.25126 0.14947 0.12094
vt -0.09084 0.03521
vt -0.08322 0.03625
vt -0.08794 0.04233
vn -0.0181 -0.9988 -0.0444
f 49/49/17 50/50/17 51/51/17
v -0.25955 0.15053 0.10059
v -0.25126 0.14947 0.12094
v -0.24473 0.96902 0.13698
vt 0.03521 0.05268
vt 0.04233 0.05232
vt 0.04794 0.33916
vn -0.9262 0.0000 0.3771
f 52/52/18 53/53/18 54/54/18
v -0.24473 0.96902 0.13698
v -0.25126 0.14947 0.12094
v -0.23644 0.96797 0.15734
vt 0.04794 0.33916
vt 0.04233 0.05232
vt 0.05507 0.33879
vn -0.9262 0.0000 0.3771
f 55/55/19 56/56/19 57/57/19
v -0.24473 0.96902 0.13698
v -0.23644 0.96797 0.15734
v -0.22294 0.96849 0.13998
vt -0.08566 0.04794
vt -0.08275 0.05507
vt -0.07803 0.04899
vn 0.0181 0.9988 0.0444
f 58/58/20 59/59/20 60/60/20
v -0.25126 0.14947 0.12094
v -0.23776 0.15000 0.10358
v -0.22947 0.14894 0.12393
vt -0.08794 0.04233
vt -0.08322 0.03625
vt -0.08032 0.04338
vn -0.0181 -0.9988 -0.0444
f 61/61/21 62/62/21 63/63/21
v -0.25126 0.14947 0.12094
v -0.22947 0.14894 0.12393
v -0.23644 0.96797 0.15734
vt -0.08794 0.05232
vt -0.08032 0.05213
vt -0.08275 0.33879
vn -0.1369 -0.0415 0.9897
f 64/64/22 65/65/22 66/66/22
v -0.23644 0.96797 0.15734
v -0.22947 0.14894 0.12393
v -0.21465 0.96744 0.16033
vt -0.08275 0.33879
vt -0.08032 0.05213
vt -0.07513 0.33860
vn -0.1369 -0.0415 0.9897
f 67/67/23 68/68/23 69/69/23
v -0.23644 0.96797 0.15734
v -0.21465 0.96744 0.16033
v -0.22294 0.96849 0.13998
vt -0.08275 0.05507
vt -0.07513 0.05611
vt -0.07803 0.04899
vn 0.0181 0.9988 0.0444
f 70/70/24 71/71/24 72/72/24
v -0.22947 0.14894 0.12393
v -0.23776 0.15000 0.10358
v -0.21597 0.14947 0.10657
vt -0.08032 0.04338
vt -0.08322 0.03625
vt -0.07559 0.03730
vn -0.0181 -0.9988 -0.0444
f 73/73/25 74/74/25 75/75/25
v -0.22947 0.14894 0.12393
v -0.21597 0.14947 0.10657
v -0.21465 0.96744 0.16033
vt 0.04338 0.05213
vt 0.03730 0.05232
vt 0.05611 0.33860
vn 0.7893 -0.0415 0.6126
f 76/76/26 77/77/26 78/78/26
v -0.21465 0.96744 0.16033
v -0.21597 0.14947 0.10657
v -0.20115 0.96797 0.14297
vt 0.05611 0.33860
vt 0.03730 0.05232
vt 0.05004 0.33879
vn 0.7893 -0.0415 0.6126
f 79/79/27 80/80/27 81/81/27
v -0.21465 0.96744 0.16033
v -0.20115 0.96797 0.14297
v -0.22294 0.96849 0.13998
vt -0.07513 0.05611
vt -0.07040 0.05004
vt -0.07803 0.04899
vn 0.0181 0.9988 0.0444
f 82/82/28 83/83/28 84/84/28
v -0.21597 0.14947 0.10657
v -0.23776 0.15000 0.10358
v -0.22426 0.15053 0.08622
vt -0.07559 0.03730
vt -0.08322 0.03625
vt -0.07849 0.03018
vn -0.0181 -0.9988 -0.0444
f 85/85/29 86/86/29 87/87/29
v -0.21597 0.14947 0.10657
v -0.22426 0.15053 0.08622
v -0.20115 0.96797 0.14297
vt 0.03730 0.05232
vt 0.03018 0.05268
vt 0.05004 0.33879
vn 0.9262 -0.0000 -0.3771
f 88/88/30 89/89/30 90/90/30
v -0.20115 0.96797 0.14297
v -0.22426 0.15053 0.08622
v -0.20944 0.96902 0.12261
vt 0.05004 0.33879
vt 0.03018 0.05268
vt 0.04292 0.33916
vn 0.9262 -0.0000 -0.3771
f 91/91/31 92/92/31 93/93/31
v -0.20115 0.96797 0.14297
v -0.20944 0.96902 0.12261
v -0.22294 0.96849 0.13998
vt -0.07040 0.05004
vt -0.07330 0.04292
vt -0.07803 0.04899
vn 0.0181 0.9988 0.0444
f 94/94/32 95/95/32 96/96/32
v -0.22426 0.15053 0.08622
v -0.23776 0.15000 0.10358
v -0.24605 0.15106 0.08323
vt -0.07849 0.03018
vt -0.08322 0.03625
vt -0.08612 0.02913
vn -0.0181 -0.9988 -0.0444
f 97/97/33 98/98/33 99/99/33
v -0.22426 0.15053 0.08622
v -0.24605 0.15106 0.08323
v -0.20944 0.96902 0.12261
vt -0.07849 0.05268
vt -0.08612 0.05287
vt -0.07330 0.33916
vn 0.1369 0.0415 -0.9897
f 100/100/34 101/101/34 102/102/34
v -0.20944 0.96902 0.12261
v -0.24605 0.15106 0.08323
v -0.23123 0.96955 0.11962
vt -0.07330 0.33916
vt -0.08612 0.05287
vt -0.08093 0.33934
vn 0.1369 0.0415 -0.9897
f 103/103/35 104/104/35 105/105/35
v -0.20944 0.96902 0.12261
v -0.23123 0.96955 0.11962
v -0.22294 0.96849 0.13998
vt -0.07330 0.04292
vt -0.08093 0.04187
vt -0.07803 0.04899
vn 0.0181 0.9988 0.0444
f 106/106/36 107/107/36 108/108/36
v -0.20090 1.03535 0.19411
v -0.19927 1.05693 0.19810
v -0.21773 1.04614 0.20329
vt -0.07031 0.36237
vt -0.06975 0.36992
vt -0.07621 0.36615
vn 0.3698 -0.1957 0.9083
f 109/109/37 110/110/37 111/111/37
v -0.20090 1.03535 0.19411
v -0.21773 1.04614 0.20329
v -0.35051 1.11452 -0.17333
vt -0.07031 0.06794
vt -0.07621 0.07115
vt -0.12268 -0.06067
vn -0.5270 -0.8493 0.0316
f 112/112/38 113/113/38 114/114/38
v -0.35051 1.11452 -0.17333
v -0.21773 1.04614 0.20329
v -0.36734 1.12531 -0.16415
vt -0.12268 -0.06067
vt -0.07621 0.07115
vt -0.12857 -0.05745
vn -0.5270 -0.8493 0.0316
f 115/115/39 116/116/39 117/117/39
v -0.35051 1.11452 -0.17333
v -0.36734 1.12531 -0.16415
v -0.34888 1.13609 -0.16935
vt -0.12268 0.39008
vt -0.12857 0.39386
vt -0.12211 0.39763
vn -0.3698 0.1957 -0.9083
f 118/118/40 119/119/40 120/120/40
v -0.21773 1.04614 0.20329
v -0.19927 1.05693 0.19810
v -0.21611 1.06771 0.20728
vt -0.07621 0.36615
vt -0.06975 0.36992
vt -0.07564 0.37370
vn 0.3698 -0.1957 0.9083
f 121/121/41 122/122/41 123/123/41
v -0.21773 1.04614 0.20329
v -0.21611 1.06771 0.20728
v -0.36734 1.12531 -0.16415
vt 0.07115 0.36615
vt 0.07255 0.37370
vt -0.05745 0.39386
vn -0.9262 -0.0000 0.3771
f 124/124/42 125/125/42 126/126/42
v -0.36734 1.12531 -0.16415
v -0.21611 1.06771 0.20728
v -0.36572 1.14688 -0.16017
vt -0.05745 0.39386
vt 0.07255 0.37370
vt -0.05606 0.40141
vn -0.9262 0.0000 0.3771
f 127/127/43 128/128/43 129/129/43
v -0.36734 1.12531 -0.16415
v -0.36572 1.14688 -0.16017
v -0.34888 1.13609 -0.16935
vt -0.12857 0.39386
vt -0.12800 0.40141
vt -0.12211 0.39763
vn -0.3698 0.1957 -0.9083
f 130/130/44 131/131/44 132/132/44
v -0.21611 1.06771 0.20728
v -0.19927 1.05693 0.19810
v -0.19765 1.07850 0.20209
vt -0.07564 0.37370
vt -0.06975 0.36992
vt -0.06918 0.37748
vn 0.3698 -0.1957 0.9083
f 133/133/45 134/134/45 135/135/45
v -0.21611 1.06771 0.20728
v -0.19765 1.07850 0.20209
v -0.36572 1.14688 -0.16017
vt -0.07564 0.07255
vt -0.06918 0.07073
vt -0.12800 -0.05606
vn -0.3992 0.8493 0.3455
f 136/136/46 137/137/46 138/138/46
v -0.36572 1.14688 -0.16017
v -0.19765 1.07850 0.20209
v -0.34726 1.15767 -0.16536
vt -0.12800 -0.05606
vt -0.06918 0.07073
vt -0.12154 -0.05788
vn -0.3992 0.8493 0.3455
f 139/139/47 140/140/47 141/141/47
v -0.36572 1.14688 -0.16017
v -0.34726 1.15767 -0.16536
v -0.34888 1.13609 -0.16935
vt -0.12800 0.40141
vt -0.12154 0.40518
vt -0.12211 0.39763
vn -0.3698 0.1957 -0.9083
f 142/142/48 143/143/48 144/144/48
v -0.19765 1.07850 0.20209
v -0.19927 1.05693 0.19810
v -0.18082 1.06771 0.19291
vt -0.06918 0.37748
vt -0.06975 0.36992
vt -0.06329 0.37370
vn 0.3698 -0.1957 0.9083
f 145/145/49 146/146/49 147/147/49
v -0.19765 1.07850 0.20209
v -0.18082 1.06771 0.19291
v -0.34726 1.15767 -0.16536
vt -0.06918 0.07073
vt -0.06329 0.06752
vt -0.12154 -0.05788
vn 0.5270 0.8493 -0.0316
f 148/148/50 149/149/50 150/150/50
v -0.34726 1.15767 -0.16536
v -0.18082 1.06771 0.19291
v -0.33043 1.14688 -0.17454
vt -0.12154 -0.05788
vt -0.06329 0.06752
vt -0.11565 -0.06109
vn 0.5270 0.8493 -0.0316
f 151/151/51 152/152/51 153/153/51
v -0.34726 1.15767 -0.16536
v -0.33043 1.14688 -0.17454
v -0.34888 1.13609 -0.16935
vt -0.12154 0.40518
vt -0.11565 0.40141
vt -0.12211 0.39763
vn -0.3698 0.1957 -0.9083
f 154/154/52 155/155/52 156/156/52
v -0.18082 1.06771 0.19291
v -0.19927 1.05693 0.19810
v -0.18244 1.04614 0.18892
vt -0.06329 0.37370
vt -0.06975 0.36992
vt -0.06385 0.36615
vn 0.3698 -0.1957 0.9083
f 157/157/53 158/158/53 159/159/53
v -0.18082 1.06771 0.19291
v -0.18244 1.04614 0.18892
v -0.33043 1.14688 -0.17454
vt 0.06752 0.37370
vt 0.06612 0.36615
vt -0.06109 0.40141
vn 0.9262 0.0000 -0.3771
f 160/160/54 161/161/54 162/162/54
v -0.33043 1.14688 -0.17454
v -0.18244 1.04614 0.18892
v -0.33205 1.12531 -0.17852
vt -0.06109 0.40141
vt 0.06612 0.36615
vt -0.06248 0.39386
vn 0.9262 0.0000 -0.3771
f 163/163/55 164/164/55 165/165/55
v -0.33043 1.14688 -0.17454
v -0.33205 1.12531 -0.17852
v -0.34888 1.13609 -0.16935
vt -0.11565 0.40141
vt -0.11622 0.39386
vt -0.12211 0.39763
vn -0.3698 0.1957 -0.9083
f 166/166/56 167/167/56 168/168/56
v -0.18244 1.04614 0.18892
v -0.19927 1.05693 0.19810
v -0.20090 1.03535 0.19411
vt -0.06385 0.36615
vt -0.06975 0.36992
vt -0.07031 0.36237
vn 0.3698 -0.1957 0.9083
f 169/169/57 170/170/57 171/171/57
v -0.18244 1.04614 0.18892
v -0.20090 1.03535 0.19411
v -0.33205 1.12531 -0.17852
vt -0.06385 0.06612
vt -0.07031 0.06794
vt -0.11622 -0.06248
vn 0.3992 -0.8493 -0.3455
f 172/172/58 173/173/58 174/174/58
v -0.33205 1.12531 -0.17852
v -0.20090 1.03535 0.19411
v -0.35051 1.11452 -0.17333
vt -0.11622 -0.06248
vt -0.07031 0.06794
vt -0.12268 -0.06067
vn 0.3992 -0.8493 -0.3455
f 175/175/59 176/176/59 177/177/59
v -0.33205 1.12531 -0.17852
v -0.35051 1.11452 -0.17333
v -0.34888 1.13609 -0.16935
vt -0.11622 0.39386
vt -0.12268 0.39008
vt -0.12211 0.39763
vn -0.3698 0.1957 -0.9083
f 178/178/60 179/179/60 180/180/60
v -0.20047 0.15805 -0.08664
v -0.18023 0.15000 -0.08971
v -0.18749 0.15403 -0.06934
vt -0.07016 -0.03032
vt -0.06308 -0.03140
vt -0.06562 -0.02427
vn -0.3619 -0.9306 0.0549
f 181/181/61 182/182/61 183/183/61
v -0.20047 0.15805 -0.08664
v -0.18749 0.15403 -0.06934
v 0.14343 1.04237 -0.13881
vt -0.03032 0.05532
vt -0.02427 0.05391
vt -0.04858 0.36483
vn -0.7218 0.3170 0.6152
f 184/184/62 185/185/62 186/186/62
v 0.14343 1.04237 -0.13881
v -0.18749 0.15403 -0.06934
v 0.15641 1.03834 -0.12151
vt -0.04858 0.36483
vt -0.02427 0.05391
vt -0.04253 0.36342
vn -0.7218 0.3170 0.6152
f 187/187/63 188/188/63 189/189/63
v 0.14343 1.04237 -0.13881
v 0.15641 1.03834 -0.12151
v 0.16367 1.03431 -0.14188
vt 0.05020 -0.04858
vt 0.05474 -0.04253
vt 0.05729 -0.04966
vn 0.3619 0.9306 -0.0549
f 190/190/64 191/191/64 192/192/64
v -0.18749 0.15403 -0.06934
v -0.18023 0.15000 -0.08971
v -0.16725 0.14597 -0.07241
vt -0.06562 -0.02427
vt -0.06308 -0.03140
vt -0.05854 -0.02534
vn -0.3619 -0.9306 0.0549
f 193/193/65 194/194/65 195/195/65
v -0.18749 0.15403 -0.06934
v -0.16725 0.14597 -0.07241
v 0.15641 1.03834 -0.12151
vt -0.06562 0.05391
vt -0.05854 0.05109
vt 0.05474 0.36342
vn 0.1500 -0.0000 0.9887
f 196/196/66 197/197/66 198/198/66
v 0.15641 1.03834 -0.12151
v -0.16725 0.14597 -0.07241
v 0.17665 1.03029 -0.12458
vt 0.05474 0.36342
vt -0.05854 0.05109
vt 0.06183 0.36060
vn 0.1500 0.0000 0.9887
f 199/199/67 200/200/67 201/201/67
v 0.15641 1.03834 -0.12151
v 0.17665 1.03029 -0.12458
v 0.16367 1.03431 -0.14188
vt 0.05474 -0.04253
vt 0.06183 -0.04360
vt 0.05729 -0.04966
vn 0.3619 0.9306 -0.0549
f 202/202/68 203/203/68 204/204/68
v -0.16725 0.14597 -0.07241
v -0.18023 0.15000 -0.08971
v -0.15999 0.14195 -0.09278
vt -0.05854 -0.02534
vt -0.06308 -0.03140
vt -0.05600 -0.03247
vn -0.3619 -0.9306 0.0549
f 205/205/69 206/206/69 207/207/69
v -0.16725 0.14597 -0.07241
v -0.15999 0.14195 -0.09278
v 0.17665 1.03029 -0.12458
vt -0.02534 0.05109
vt -0.03247 0.04968
vt -0.04360 0.36060
vn 0.8718 -0.3170 0.3735
f 208/208/70 209/209/70 210/210/70
v 0.17665 1.03029 -0.12458
v -0.15999 0.14195 -0.09278
v 0.18392 1.02626 -0.14495
vt -0.04360 0.36060
vt -0.03247 0.04968
vt -0.05073 0.35919
vn 0.8718 -0.3170 0.3735
f 211/211/71 212/212/71 213/213/71
v 0.17665 1.03029 -0.12458
v 0.18392 1.02626 -0.14495
v 0.16367 1.03431 -0.14188
vt 0.06183 -0.04360
vt 0.06437 -0.05073
vt 0.05729 -0.04966
vn 0.3619 0.9306 -0.0549
f 214/214/72 215/215/72 216/216/72
v -0.15999 0.14195 -0.09278
v -0.18023 0.15000 -0.08971
v -0.17296 0.14597 -0.11008
vt -0.05600 -0.03247
vt -0.06308 -0.03140
vt -0.06054 -0.03853
vn -0.3619 -0.9306 0.0549
f 217/217/73 218/218/73 219/219/73
v -0.15999 0.14195 -0.09278
v -0.17296 0.14597 -0.11008
v 0.18392 1.02626 -0.14495
vt -0.03247 0.04968
vt -0.03853 0.05109
vt -0.05073 0.35919
vn 0.7218 -0.3170 -0.6152
f 220/220/74 221/221/74 222/222/74
v 0.18392 1.02626 -0.14495
v -0.17296 0.14597 -0.11008
v 0.17094 1.03029 -0.16225
vt -0.05073 0.35919
vt -0.03853 0.05109
vt -0.05679 0.36060
vn 0.7218 -0.3170 -0.6152
f 223/223/75 224/224/75 225/225/75
v 0.18392 1.02626 -0.14495
v 0.17094 1.03029 -0.16225
v 0.16367 1.03431 -0.14188
vt 0.06437 -0.05073
vt 0.05983 -0.05679
vt 0.05729 -0.04966
vn 0.3619 0.9306 -0.0549
f 226/226/76 227/227/76 228/228/76
v -0.17296 0.14597 -0.11008
v -0.18023 0.15000 -0.08971
v -0.19321 0.15403 -0.10701
vt -0.06054 -0.03853
vt -0.06308 -0.03140
vt -0.06762 -0.03745
vn -0.3619 -0.9306 0.0549
f 229/229/77 230/230/77 231/231/77
v -0.17296 0.14597 -0.11008
v -0.19321 0.15403 -0.10701
v 0.17094 1.03029 -0.16225
vt -0.06054 0.05109
vt -0.06762 0.05391
vt 0.05983 0.36060
vn -0.1500 -0.0000 -0.9887
f 232/232/78 233/233/78 234/234/78
v 0.17094 1.03029 -0.16225
v -0.19321 0.15403 -0.10701
v 0.15070 1.03834 -0.15918
vt 0.05983 0.36060
vt -0.06762 0.05391
vt 0.05274 0.36342
vn -0.1500 -0.0000 -0.9887
f 235/235/79 236/236/79 237/237/79
v 0.17094 1.03029 -0.16225
v 0.15070 1.03834 -0.15918
v 0.16367 1.03431 -0.14188
vt 0.05983 -0.05679
vt 0.05274 -0.05571
vt 0.05729 -0.04966
vn 0.3619 0.9306 -0.0549
f 238/238/80 239/239/80 240/240/80
v -0.19321 0.15403 -0.10701
v -0.18023 0.15000 -0.08971
v -0.20047 0.15805 -0.08664
vt -0.06762 -0.03745
vt -0.06308 -0.03140
vt -0.07016 -0.03032
vn -0.3619 -0.9306 0.0549
f 241/241/81 242/242/81 243/243/81
v -0.19321 0.15403 -0.10701
v -0.20047 0.15805 -0.08664
v 0.15070 1.03834 -0.15918
vt -0.03745 0.05391
vt -0.03032 0.05532
vt -0.05571 0.36342
vn -0.8718 0.3170 -0.3735
f 244/244/82 245/245/82 246/246/82
v 0.15070 1.03834 -0.15918
v -0.20047 0.15805 -0.08664
v 0.14343 1.04237 -0.13881
vt -0.05571 0.36342
vt -0.03032 0.05532
vt -0.04858 0.36483
vn -0.8718 0.3170 -0.3735
f 247/247/83 248/248/83 249/249/83
v 0.15070 1.03834 -0.15918
v 0.14343 1.04237 -0.13881
v 0.16367 1.03431 -0.14188
vt 0.05274 -0.05571
vt 0.05020 -0.04858
vt 0.05729 -0.04966
vn 0.3619 0.9306 -0.0549
f 250/250/84 251/251/84 252/252/84
v 0.22649 1.06947 -0.15141
v 0.23730 1.08856 -0.15305
v 0.23475 1.07902 -0.13339
vt -0.05299 0.37431
vt -0.05357 0.38100
vt -0.04669 0.37766
vn 0.8579 -0.4970 -0.1301
f 253/253/85 254/254/85 255/255/85
v 0.22649 1.06947 -0.15141
v 0.23475 1.07902 -0.13339
v -0.06662 1.23928 -0.10694
vt 0.07927 -0.05299
vt 0.08216 -0.04669
vt -0.02332 -0.03743
vn -0.3506 -0.7515 0.5589
f 256/256/86 257/257/86 258/258/86
v -0.06662 1.23928 -0.10694
v 0.23475 1.07902 -0.13339
v -0.05835 1.24882 -0.08893
vt -0.02332 -0.03743
vt 0.08216 -0.04669
vt -0.02042 -0.03112
vn -0.3506 -0.7515 0.5589
f 259/259/87 260/260/87 261/261/87
v -0.06662 1.23928 -0.10694
v -0.05835 1.24882 -0.08893
v -0.05581 1.25837 -0.10858
vt -0.03743 0.43375
vt -0.03112 0.43709
vt -0.03800 0.44043
vn -0.8579 0.4970 0.1301
f 262/262/88 263/263/88 264/264/88
v 0.23475 1.07902 -0.13339
v 0.23730 1.08856 -0.15305
v 0.24556 1.09811 -0.13503
vt -0.04669 0.37766
vt -0.05357 0.38100
vt -0.04726 0.38434
vn 0.8579 -0.4970 -0.1301
f 265/265/89 266/266/89 267/267/89
v 0.23475 1.07902 -0.13339
v 0.24556 1.09811 -0.13503
v -0.05835 1.24882 -0.08893
vt 0.08216 0.37766
vt 0.08595 0.38434
vt -0.02042 0.43709
vn 0.1500 -0.0000 0.9887
f 268/268/90 269/269/90 270/270/90
v -0.05835 1.24882 -0.08893
v 0.24556 1.09811 -0.13503
v -0.04754 1.26791 -0.09057
vt -0.02042 0.43709
vt 0.08595 0.38434
vt -0.01664 0.44377
vn 0.1500 0.0000 0.9887
f 271/271/91 272/272/91 273/273/91
v -0.05835 1.24882 -0.08893
v -0.04754 1.26791 -0.09057
v -0.05581 1.25837 -0.10858
vt -0.03112 0.43709
vt -0.03170 0.44377
vt -0.03800 0.44043
vn -0.8579 0.4970 0.1301
f 274/274/92 275/275/92 276/276/92
v 0.24556 1.09811 -0.13503
v 0.23730 1.08856 -0.15305
v 0.24811 1.10765 -0.15469
vt -0.04726 0.38434
vt -0.05357 0.38100
vt -0.05414 0.38768
vn 0.8579 -0.4970 -0.1301
f 277/277/93 278/278/93 279/279/93
v 0.24556 1.09811 -0.13503
v 0.24811 1.10765 -0.15469
v -0.04754 1.26791 -0.09057
vt 0.08595 -0.04726
vt 0.08684 -0.05414
vt -0.01664 -0.03170
vn 0.5006 0.7515 0.4298
f 280/280/94 281/281/94 282/282/94
v -0.04754 1.26791 -0.09057
v 0.24811 1.10765 -0.15469
v -0.04500 1.27746 -0.11022
vt -0.01664 -0.03170
vt 0.08684 -0.05414
vt -0.01575 -0.03858
vn 0.5006 0.7515 0.4298
f 283/283/95 284/284/95 285/285/95
v -0.04754 1.26791 -0.09057
v -0.04500 1.27746 -0.11022
v -0.05581 1.25837 -0.10858
vt -0.03170 0.44377
vt -0.03858 0.44711
vt -0.03800 0.44043
vn -0.8579 0.4970 0.1301
f 286/286/96 287/287/96 288/288/96
v 0.24811 1.10765 -0.15469
v 0.23730 1.08856 -0.15305
v 0.23985 1.09811 -0.17270
vt -0.05414 0.38768
vt -0.05357 0.38100
vt -0.06045 0.38434
vn 0.8579 -0.4970 -0.1301
f 289/289/97 290/290/97 291/291/97
v 0.24811 1.10765 -0.15469
v 0.23985 1.09811 -0.17270
v -0.04500 1.27746 -0.11022
vt 0.08684 -0.05414
vt 0.08395 -0.06045
vt -0.01575 -0.03858
vn 0.3506 0.7515 -0.5589
f 292/292/98 293/293/98 294/294/98
v -0.04500 1.27746 -0.11022
v 0.23985 1.09811 -0.17270
v -0.05326 1.26791 -0.12824
vt -0.01575 -0.03858
vt 0.08395 -0.06045
vt -0.01864 -0.04488
vn 0.3506 0.7515 -0.5589
f 295/295/99 296/296/99 297/297/99
v -0.04500 1.27746 -0.11022
v -0.05326 1.26791 -0.12824
v -0.05581 1.25837 -0.10858
vt -0.03858 0.44711
vt -0.04488 0.44377
vt -0.03800 0.44043
vn -0.8579 0.4970 0.1301
f 298/298/100 299/299/100 300/300/100
v 0.23985 1.09811 -0.17270
v 0.23730 1.08856 -0.15305
v 0.22904 1.07902 -0.17106
vt -0.06045 0.38434
vt -0.05357 0.38100
vt -0.05987 0.37766
vn 0.8579 -0.4970 -0.1301
f 301/301/101 302/302/101 303/303/101
v 0.23985 1.09811 -0.17270
v 0.22904 1.07902 -0.17106
v -0.05326 1.26791 -0.12824
vt 0.08395 0.38434
vt 0.08016 0.37766
vt -0.01864 0.44377
vn -0.1500 0.0000 -0.9887
f 304/304/102 305/305/102 306/306/102
v -0.05326 1.26791 -0.12824
v 0.22904 1.07902 -0.17106
v -0.06407 1.24882 -0.12660
vt -0.01864 0.44377
vt 0.08016 0.37766
vt -0.02242 0.43709
vn -0.1500 -0.0000 -0.9887
f 307/307/103 308/308/103 309/309/103
v -0.05326 1.26791 -0.12824
v -0.06407 1.24882 -0.12660
v -0.05581 1.25837 -0.10858
vt -0.04488 0.44377
vt -0.04431 0.43709
vt -0.03800 0.44043
vn -0.8579 0.4970 0.1301
f 310/310/104 311/311/104 312/312/104
v 0.22904 1.07902 -0.17106
v 0.23730 1.08856 -0.15305
v 0.22649 1.06947 -0.15141
vt -0.05987 0.37766
vt -0.05357 0.38100
vt -0.05299 0.37431
vn 0.8579 -0.4970 -0.1301
f 313/313/105 314/314/105 315/315/105
v 0.22904 1.07902 -0.17106
v 0.22649 1.06947 -0.15141
v -0.06407 1.24882 -0.12660
vt 0.08016 -0.05987
vt 0.07927 -0.05299
vt -0.02242 -0.04431
vn -0.5006 -0.7515 -0.4298
f 316/316/106 317/317/106 318/318/106
v -0.06407 1.24882 -0.12660
v 0.22649 1.06947 -0.15141
v -0.06662 1.23928 -0.10694
vt -0.02242 -0.04431
vt 0.07927 -0.05299
vt -0.02332 -0.03743
vn -0.5006 -0.7515 -0.4298
f 319/319/107 320/320/107 321/321/107
v -0.06407 1.24882 -0.12660
v -0.06662 1.23928 -0.10694
v -0.05581 1.25837 -0.10858
vt -0.04431 0.43709
vt -0.03743 0.43375
vt -0.03800 0.44043
vn -0.8579 0.4970 0.1301
f 322/322/108 323/323/108 324/324/108
v -0.17726 0.14188 -0.02586
v -0.19732 0.15000 -0.02982
v -0.18359 0.14594 -0.04653
vt -0.06204 -0.00905
vt -0.06906 -0.01044
vt -0.06426 -0.01629
vn -0.3619 -0.9295 -0.0716
f 325/325/109 326/326/109 327/327/109
v -0.17726 0.14188 -0.02586
v -0.18359 0.14594 -0.04653
v 0.10063 0.85568 0.02912
vt -0.00905 0.04966
vt -0.01629 0.05108
vt 0.01019 0.29949
vn 0.8867 -0.3195 -0.3343
f 328/328/110 329/329/110 330/330/110
v 0.10063 0.85568 0.02912
v -0.18359 0.14594 -0.04653
v 0.09430 0.85974 0.00845
vt 0.01019 0.29949
vt -0.01629 0.05108
vt 0.00296 0.30091
vn 0.8867 -0.3195 -0.3343
f 331/331/111 332/332/111 333/333/111
v 0.10063 0.85568 0.02912
v 0.09430 0.85974 0.00845
v 0.08057 0.86380 0.02515
vt 0.03522 0.01019
vt 0.03300 0.00296
vt 0.02820 0.00880
vn 0.3619 0.9295 0.0716
f 334/334/112 335/335/112 336/336/112
v -0.18359 0.14594 -0.04653
v -0.19732 0.15000 -0.02982
v -0.20365 0.15406 -0.05050
vt -0.06426 -0.01629
vt -0.06906 -0.01044
vt -0.07128 -0.01767
vn -0.3619 -0.9295 -0.0716
f 337/337/113 338/338/113 339/339/113
v -0.18359 0.14594 -0.04653
v -0.20365 0.15406 -0.05050
v 0.09430 0.85974 0.00845
vt -0.06426 0.05108
vt -0.07128 0.05392
vt 0.03300 0.30091
vn 0.1941 -0.0000 -0.9810
f 340/340/114 341/341/114 342/342/114
v 0.09430 0.85974 0.00845
v -0.20365 0.15406 -0.05050
v 0.07424 0.86785 0.00448
vt 0.03300 0.30091
vt -0.07128 0.05392
vt 0.02598 0.30375
vn 0.1941 0.0000 -0.9810
f 343/343/115 344/344/115 345/345/115
v 0.09430 0.85974 0.00845
v 0.07424 0.86785 0.00448
v 0.08057 0.86380 0.02515
vt 0.03300 0.00296
vt 0.02598 0.00157
vt 0.02820 0.00880
vn 0.3619 0.9295 0.0716
f 346/346/116 347/347/116 348/348/116
v -0.20365 0.15406 -0.05050
v -0.19732 0.15000 -0.02982
v -0.21738 0.15812 -0.03379
vt -0.07128 -0.01767
vt -0.06906 -0.01044
vt -0.07608 -0.01183
vn -0.3619 -0.9295 -0.0716
f 349/349/117 350/350/117 351/351/117
v -0.20365 0.15406 -0.05050
v -0.21738 0.15812 -0.03379
v 0.07424 0.86785 0.00448
vt -0.01767 0.05392
vt -0.01183 0.05534
vt 0.00157 0.30375
vn -0.6926 0.3195 -0.6467
f 352/352/118 353/353/118 354/354/118
v 0.07424 0.86785 0.00448
v -0.21738 0.15812 -0.03379
v 0.06051 0.87191 0.02119
vt 0.00157 0.30375
vt -0.01183 0.05534
vt 0.00741 0.30517
vn -0.6926 0.3195 -0.6467
f 355/355/119 356/356/119 357/357/119
v 0.07424 0.86785 0.00448
v 0.06051 0.87191 0.02119
v 0.08057 0.86380 0.02515
vt 0.02598 0.00157
vt 0.02118 0.00741
vt 0.02820 0.00880
vn 0.3619 0.9295 0.0716
f 358/358/120 359/359/120 360/360/120
v -0.21738 0.15812 -0.03379
v -0.19732 0.15000 -0.02982
v -0.21105 0.15406 -0.01312
vt -0.07608 -0.01183
vt -0.06906 -0.01044
vt -0.07387 -0.00459
vn -0.3619 -0.9295 -0.0716
f 361/361/121 362/362/121 363/363/121
v -0.21738 0.15812 -0.03379
v -0.21105 0.15406 -0.01312
v 0.06051 0.87191 0.02119
vt -0.01183 0.05534
vt -0.00459 0.05392
vt 0.00741 0.30517
vn -0.8867 0.3195 0.3343
f 364/364/122 365/365/122 366/366/122
v 0.06051 0.87191 0.02119
v -0.21105 0.15406 -0.01312
v 0.06684 0.86785 0.04186
vt 0.00741 0.30517
vt -0.00459 0.05392
vt 0.01465 0.30375
vn -0.8867 0.3195 0.3343
f 367/367/123 368/368/123 369/369/123
v 0.06051 0.87191 0.02119
v 0.06684 0.86785 0.04186
v 0.08057 0.86380 0.02515
vt 0.02118 0.00741
vt 0.02339 0.01465
vt 0.02820 0.00880
vn 0.3619 0.9295 0.0716
f 370/370/124 371/371/124 372/372/124
v -0.21105 0.15406 -0.01312
v -0.19732 0.15000 -0.02982
v -0.19099 0.14594 -0.00915
vt -0.07387 -0.00459
vt -0.06906 -0.01044
vt -0.06685 -0.00320
vn -0.3619 -0.9295 -0.0716
f 373/373/125 374/374/125 375/375/125
v -0.21105 0.15406 -0.01312
v -0.19099 0.14594 -0.00915
v 0.06684 0.86785 0.04186
vt -0.07387 0.05392
vt -0.06685 0.05108
vt 0.02339 0.30375
vn -0.1941 0.0000 0.9810
f 376/376/126 377/377/126 378/378/126
v 0.06684 0.86785 0.04186
v -0.19099 0.14594 -0.00915
v 0.08690 0.85974 0.04583
vt 0.02339 0.30375
vt -0.06685 0.05108
vt 0.03042 0.30091
vn -0.1941 0.0000 0.9810
f 379/379/127 380/380/127 381/381/127
v 0.06684 0.86785 0.04186
v 0.08690 0.85974 0.04583
v 0.08057 0.86380 0.02515
vt 0.02339 0.01465
vt 0.03042 0.01604
vt 0.02820 0.00880
vn 0.3619 0.9295 0.0716
f 382/382/128 383/383/128 384/384/128
v -0.19099 0.14594 -0.00915
v -0.19732 0.15000 -0.02982
v -0.17726 0.14188 -0.02586
vt -0.06685 -0.00320
vt -0.06906 -0.01044
vt -0.06204 -0.00905
vn -0.3619 -0.9295 -0.0716
f 385/385/129 386/386/129 387/387/129
v -0.19099 0.14594 -0.00915
v -0.17726 0.14188 -0.02586
v 0.08690 0.85974 0.04583
vt -0.00320 0.05108
vt -0.00905 0.04966
vt 0.01604 0.30091
vn 0.6926 -0.3195 0.6467
f 388/388/130 389/389/130 390/390/130
v 0.08690 0.85974 0.04583
v -0.17726 0.14188 -0.02586
v 0.10063 0.85568 0.02912
vt 0.01604 0.30091
vt -0.00905 0.04966
vt 0.01019 0.29949
vn 0.6926 -0.3195 0.6467
f 391/391/131 392/392/131 393/393/131
v 0.08690 0.85974 0.04583
v 0.10063 0.85568 0.02912
v 0.08057 0.86380 0.02515
vt 0.03042 0.01604
vt 0.03522 0.01019
vt 0.02820 0.00880
vn 0.3619 0.9295 0.0716
f 394/394/132 395/395/132 396/396/132
v 0.05423 0.92383 0.01994
v 0.05659 0.94570 0.02041
v 0.05911 0.93477 0.00149
vt 0.00698 0.32334
vt 0.00714 0.33099
vt 0.00052 0.32717
vn -0.9751 0.1094 -0.1929
f 397/397/133 398/398/133 399/399/133
v 0.05423 0.92383 0.01994
v 0.05911 0.93477 0.00149
v 0.44489 0.88000 0.09723
vt 0.01898 0.00698
vt 0.02069 0.00052
vt 0.15571 0.03403
vn 0.0041 -0.8608 -0.5089
f 400/400/134 401/401/134 402/402/134
v 0.44489 0.88000 0.09723
v 0.05911 0.93477 0.00149
v 0.44976 0.89094 0.07878
vt 0.15571 0.03403
vt 0.02069 0.00052
vt 0.15742 0.02757
vn 0.0041 -0.8608 -0.5089
f 403/403/135 404/404/135 405/405/135
v 0.44489 0.88000 0.09723
v 0.44976 0.89094 0.07878
v 0.44725 0.90187 0.09770
vt 0.03403 0.30800
vt 0.02757 0.31183
vt 0.03419 0.31566
vn 0.9751 -0.1094 0.1929
f 406/406/136 407/407/136 408/408/136
v 0.05911 0.93477 0.00149
v 0.05659 0.94570 0.02041
v 0.06147 0.95663 0.00195
vt 0.00052 0.32717
vt 0.00714 0.33099
vt 0.00068 0.33482
vn -0.9751 0.1094 -0.1929
f 409/409/137 410/410/137 411/411/137
v 0.05911 0.93477 0.00149
v 0.06147 0.95663 0.00195
v 0.44976 0.89094 0.07878
vt 0.02069 0.32717
vt 0.02151 0.33482
vt 0.15742 0.31183
vn 0.1941 0.0000 -0.9810
f 412/412/138 413/413/138 414/414/138
v 0.44976 0.89094 0.07878
v 0.06147 0.95663 0.00195
v 0.45212 0.91281 0.07924
vt 0.15742 0.31183
vt 0.02151 0.33482
vt 0.15824 0.31948
vn 0.1941 0.0000 -0.9810
f 415/415/139 416/416/139 417/417/139
v 0.44976 0.89094 0.07878
v 0.45212 0.91281 0.07924
v 0.44725 0.90187 0.09770
vt 0.02757 0.31183
vt 0.02773 0.31948
vt 0.03419 0.31566
vn 0.9751 -0.1094 0.1929
f 418/418/140 419/419/140 420/420/140
v 0.06147 0.95663 0.00195
v 0.05659 0.94570 0.02041
v 0.05895 0.96757 0.02088
vt 0.00068 0.33482
vt 0.00714 0.33099
vt 0.00731 0.33865
vn -0.9751 0.1094 -0.1929
f 421/421/141 422/422/141 423/423/141
v 0.06147 0.95663 0.00195
v 0.05895 0.96757 0.02088
v 0.45212 0.91281 0.07924
vt 0.02151 0.00068
vt 0.02063 0.00731
vt 0.15824 0.02773
vn 0.1900 0.8608 -0.4721
f 424/424/142 425/425/142 426/426/142
v 0.45212 0.91281 0.07924
v 0.05895 0.96757 0.02088
v 0.44961 0.92374 0.09817
vt 0.15824 0.02773
vt 0.02063 0.00731
vt 0.15736 0.03436
vn 0.1900 0.8608 -0.4721
f 427/427/143 428/428/143 429/429/143
v 0.45212 0.91281 0.07924
v 0.44961 0.92374 0.09817
v 0.44725 0.90187 0.09770
vt 0.02773 0.31948
vt 0.03436 0.32331
vt 0.03419 0.31566
vn 0.9751 -0.1094 0.1929
f 430/430/144 431/431/144 432/432/144
v 0.05895 0.96757 0.02088
v 0.05659 0.94570 0.02041
v 0.05407 0.95663 0.03933
vt 0.00731 0.33865
vt 0.00714 0.33099
vt 0.01377 0.33482
vn -0.9751 0.1094 -0.1929
f 433/433/145 434/434/145 435/435/145
v 0.05895 0.96757 0.02088
v 0.05407 0.95663 0.03933
v 0.44961 0.92374 0.09817
vt 0.02063 0.00731
vt 0.01892 0.01377
vt 0.15736 0.03436
vn -0.0041 0.8608 0.5089
f 436/436/146 437/437/146 438/438/146
v 0.44961 0.92374 0.09817
v 0.05407 0.95663 0.03933
v 0.44473 0.91281 0.11662
vt 0.15736 0.03436
vt 0.01892 0.01377
vt 0.15566 0.04082
vn -0.0041 0.8608 0.5089
f 439/439/147 440/440/147 441/441/147
v 0.44961 0.92374 0.09817
v 0.44473 0.91281 0.11662
v 0.44725 0.90187 0.09770
vt 0.03436 0.32331
vt 0.04082 0.31948
vt 0.03419 0.31566
vn 0.9751 -0.1094 0.1929
f 442/442/148 443/443/148 444/444/148
v 0.05407 0.95663 0.03933
v 0.05659 0.94570 0.02041
v 0.05171 0.93477 0.03887
vt 0.01377 0.33482
vt 0.00714 0.33099
vt 0.01360 0.32717
vn -0.9751 0.1094 -0.1929
f 445/445/149 446/446/149 447/447/149
v 0.05407 0.95663 0.03933
v 0.05171 0.93477 0.03887
v 0.44473 0.91281 0.11662
vt 0.01892 0.33482
vt 0.01810 0.32717
vt 0.15566 0.31948
vn -0.1941 0.0000 0.9810
f 448/448/150 449/449/150 450/450/150
v 0.44473 0.91281 0.11662
v 0.05171 0.93477 0.03887
v 0.44237 0.89094 0.11616
vt 0.15566 0.31948
vt 0.01810 0.32717
vt 0.15483 0.31183
vn -0.1941 -0.0000 0.9810
f 451/451/151 452/452/151 453/453/151
v 0.44473 0.91281 0.11662
v 0.44237 0.89094 0.11616
v 0.44725 0.90187 0.09770
vt 0.04082 0.31948
vt 0.04065 0.31183
vt 0.03419 0.31566
vn 0.9751 -0.1094 0.1929
f 454/454/152 455/455/152 456/456/152
v 0.05171 0.93477 0.03887
v 0.05659 0.94570 0.02041
v 0.05423 0.92383 0.01994
vt 0.01360 0.32717
vt 0.00714 0.33099
vt 0.00698 0.32334
vn -0.9751 0.1094 -0.1929
f 457/457/153 458/458/153 459/459/153
v 0.05171 0.93477 0.03887
v 0.05423 0.92383 0.01994
v 0.44237 0.89094 0.11616
vt 0.01810 0.01360
vt 0.01898 0.00698
vt 0.15483 0.04065
vn -0.1900 -0.8608 0.4721
f 460/460/154 461/461/154 462/462/154
v 0.44237 0.89094 0.11616
v 0.05423 0.92383 0.01994
v 0.44489 0.88000 0.09723
vt 0.15483 0.04065
vt 0.01898 0.00698
vt 0.15571 0.03403
vn -0.1900 -0.8608 0.4721
f 463/463/155 464/464/155 465/465/155
v 0.44237 0.89094 0.11616
v 0.44489 0.88000 0.09723
v 0.44725 0.90187 0.09770
vt 0.04065 0.31183
vt 0.03403 0.30800
vt 0.03419 0.31566
vn 0.9751 -0.1094 0.1929
f 466/466/156 467/467/156 468/468/156
v -0.17060 0.15335 -0.03461
v -0.19051 0.15000 -0.02587
v -0.18822 0.15167 -0.04768
vt -0.05971 -0.01211
vt -0.06668 -0.00905
vt -0.06588 -0.01669
vn 0.1393 -0.9884 -0.0612
f 469/469/157 470/470/157 471/471/157
v -0.17060 0.15335 -0.03461
v -0.18822 0.15167 -0.04768
v -0.29609 1.04339 0.02050
vt -0.05971 0.05367
vt -0.06588 0.05309
vt -0.10363 0.36519
vn 0.5826 0.1318 -0.8020
f 472/472/158 473/473/158 474/474/158
v -0.29609 1.04339 0.02050
v -0.18822 0.15167 -0.04768
v -0.31370 1.04172 0.00743
vt -0.10363 0.36519
vt -0.06588 0.05309
vt -0.10980 0.36460
vn 0.5826 0.1318 -0.8020
f 475/475/159 476/476/159 477/477/159
v -0.29609 1.04339 0.02050
v -0.31370 1.04172 0.00743
v -0.31600 1.04004 0.02925
vt -0.10363 0.00718
vt -0.10980 0.00260
vt -0.11060 0.01024
vn -0.1393 0.9884 0.0612
f 478/478/160 479/479/160 480/480/160
v -0.18822 0.15167 -0.04768
v -0.19051 0.15000 -0.02587
v -0.20813 0.14833 -0.03894
vt -0.06588 -0.01669
vt -0.06668 -0.00905
vt -0.07284 -0.01363
vn 0.1393 -0.9884 -0.0612
f 481/481/161 482/482/161 483/483/161
v -0.18822 0.15167 -0.04768
v -0.20813 0.14833 -0.03894
v -0.31370 1.04172 0.00743
vt -0.06588 0.05309
vt -0.07284 0.05191
vt -0.10980 0.36460
vn -0.4021 0.0000 -0.9156
f 484/484/162 485/485/162 486/486/162
v -0.31370 1.04172 0.00743
v -0.20813 0.14833 -0.03894
v -0.33361 1.03837 0.01618
vt -0.10980 0.36460
vt -0.07284 0.05191
vt -0.11676 0.36343
vn -0.4021 0.0000 -0.9156
f 487/487/163 488/488/163 489/489/163
v -0.31370 1.04172 0.00743
v -0.33361 1.03837 0.01618
v -0.31600 1.04004 0.02925
vt -0.10980 0.00260
vt -0.11676 0.00566
vt -0.11060 0.01024
vn -0.1393 0.9884 0.0612
f 490/490/164 491/491/164 492/492/164
v -0.20813 0.14833 -0.03894
v -0.19051 0.15000 -0.02587
v -0.21042 0.14665 -0.01712
vt -0.07284 -0.01363
vt -0.06668 -0.00905
vt -0.07365 -0.00599
vn 0.1393 -0.9884 -0.0612
f 493/493/165 494/494/165 495/495/165
v -0.20813 0.14833 -0.03894
v -0.21042 0.14665 -0.01712
v -0.33361 1.03837 0.01618
vt -0.01363 0.05191
vt -0.00599 0.05133
vt 0.00566 0.36343
vn -0.9847 -0.1318 -0.1136
f 496/496/166 497/497/166 498/498/166
v -0.33361 1.03837 0.01618
v -0.21042 0.14665 -0.01712
v -0.33591 1.03670 0.03799
vt 0.00566 0.36343
vt -0.00599 0.05133
vt 0.01330 0.36284
vn -0.9847 -0.1318 -0.1136
f 499/499/167 500/500/167 501/501/167
v -0.33361 1.03837 0.01618
v -0.33591 1.03670 0.03799
v -0.31600 1.04004 0.02925
vt -0.11676 0.00566
vt -0.11757 0.01330
vt -0.11060 0.01024
vn -0.1393 0.9884 0.0612
f 502/502/168 503/503/168 504/504/168
v -0.21042 0.14665 -0.01712
v -0.19051 0.15000 -0.02587
v -0.19280 0.14833 -0.00405
vt -0.07365 -0.00599
vt -0.06668 -0.00905
vt -0.06748 -0.00142
vn 0.1393 -0.9884 -0.0612
f 505/505/169 506/506/169 507/507/169
v -0.21042 0.14665 -0.01712
v -0.19280 0.14833 -0.00405
v -0.33591 1.03670 0.03799
vt -0.07365 0.05133
vt -0.06748 0.05191
vt -0.11757 0.36284
vn -0.5826 -0.1318 0.8020
f 508/508/170 509/509/170 510/510/170
v -0.33591 1.03670 0.03799
v -0.19280 0.14833 -0.00405
v -0.31829 1.03837 0.05106
vt -0.11757 0.36284
vt -0.06748 0.05191
vt -0.11140 0.36343
vn -0.5826 -0.1318 0.8020
f 511/511/171 512/512/171 513/513/171
v -0.33591 1.03670 0.03799
v -0.31829 1.03837 0.05106
v -0.31600 1.04004 0.02925
vt -0.11757 0.01330
vt -0.11140 0.01787
vt -0.11060 0.01024
vn -0.1393 0.9884 0.0612
f 514/514/172 515/515/172 516/516/172
v -0.19280 0.14833 -0.00405
v -0.19051 0.15000 -0.02587
v -0.17289 0.15167 -0.01280
vt -0.06748 -0.00142
vt -0.06668 -0.00905
vt -0.06051 -0.00448
vn 0.1393 -0.9884 -0.0612
f 517/517/173 518/518/173 519/519/173
v -0.19280 0.14833 -0.00405
v -0.17289 0.15167 -0.01280
v -0.31829 1.03837 0.05106
vt -0.06748 0.05191
vt -0.06051 0.05309
vt -0.11140 0.36343
vn 0.4021 -0.0000 0.9156
f 520/520/174 521/521/174 522/522/174
v -0.31829 1.03837 0.05106
v -0.17289 0.15167 -0.01280
v -0.29838 1.04172 0.04232
vt -0.11140 0.36343
vt -0.06051 0.05309
vt -0.10443 0.36460
vn 0.4021 -0.0000 0.9156
f 523/523/175 524/524/175 525/525/175
v -0.31829 1.03837 0.05106
v -0.29838 1.04172 0.04232
v -0.31600 1.04004 0.02925
vt -0.11140 0.01787
vt -0.10443 0.01481
vt -0.11060 0.01024
vn -0.1393 0.9884 0.0612
f 526/526/176 527/527/176 528/528/176
v -0.17289 0.15167 -0.01280
v -0.19051 0.15000 -0.02587
v -0.17060 0.15335 -0.03461
vt -0.06051 -0.00448
vt -0.06668 -0.00905
vt -0.05971 -0.01211
vn 0.1393 -0.9884 -0.0612
f 529/529/177 530/530/177 531/531/177
v -0.17289 0.15167 -0.01280
v -0.17060 0.15335 -0.03461
v -0.29838 1.04172 0.04232
vt -0.00448 0.05309
vt -0.01211 0.05367
vt 0.01481 0.36460
vn 0.9847 0.1318 0.1136
f 532/532/178 533/533/178 534/534/178
v -0.29838 1.04172 0.04232
v -0.17060 0.15335 -0.03461
v -0.29609 1.04339 0.02050
vt 0.01481 0.36460
vt -0.01211 0.05367
vt 0.00718 0.36519
vn 0.9847 0.1318 0.1136
f 535/535/179 536/536/179 537/537/179
v -0.29838 1.04172 0.04232
v -0.29609 1.04339 0.02050
v -0.31600 1.04004 0.02925
vt -0.10443 0.01481
vt -0.10363 0.00718
vt -0.11060 0.01024
vn -0.1393 0.9884 0.0612
f 538/538/180 539/539/180 540/540/180
v -0.36100 1.06991 0.04902
v -0.37027 1.08945 0.05309
v -0.37330 1.07968 0.03361
vt 0.01716 0.37447
vt 0.01858 0.38131
vt 0.01176 0.37789
vn -0.8129 -0.4601 0.3571
f 541/541/181 542/542/181 543/543/181
v -0.36100 1.06991 0.04902
v -0.37330 1.07968 0.03361
v -0.02561 1.25972 -0.09829
vt -0.12635 0.01716
vt -0.13065 0.01176
vt -0.00896 -0.03440
vn 0.1637 -0.7689 -0.6180
f 544/544/182 545/545/182 546/546/182
v -0.02561 1.25972 -0.09829
v -0.37330 1.07968 0.03361
v -0.03791 1.26949 -0.11370
vt -0.00896 -0.03440
vt -0.13065 0.01176
vt -0.01327 -0.03980
vn 0.1637 -0.7689 -0.6180
f 547/547/183 548/548/183 549/549/183
v -0.02561 1.25972 -0.09829
v -0.03791 1.26949 -0.11370
v -0.03488 1.27926 -0.09422
vt -0.03440 0.44090
vt -0.03980 0.44432
vt -0.03298 0.44774
vn 0.8129 0.4601 -0.3571
f 550/550/184 551/551/184 552/552/184
v -0.37330 1.07968 0.03361
v -0.37027 1.08945 0.05309
v -0.38257 1.09921 0.03768
vt 0.01176 0.37789
vt 0.01858 0.38131
vt 0.01319 0.38472
vn -0.8129 -0.4601 0.3571
f 553/553/185 554/554/185 555/555/185
v -0.37330 1.07968 0.03361
v -0.38257 1.09921 0.03768
v -0.03791 1.26949 -0.11370
vt -0.13065 0.37789
vt -0.13390 0.38472
vt -0.01327 0.44432
vn -0.4021 0.0000 -0.9156
f 556/556/186 557/557/186 558/558/186
v -0.03791 1.26949 -0.11370
v -0.38257 1.09921 0.03768
v -0.04717 1.28902 -0.10963
vt -0.01327 0.44432
vt -0.13390 0.38472
vt -0.01651 0.45116
vn -0.4021 0.0000 -0.9156
f 559/559/187 560/560/187 561/561/187
v -0.03791 1.26949 -0.11370
v -0.04717 1.28902 -0.10963
v -0.03488 1.27926 -0.09422
vt -0.03980 0.44432
vt -0.03837 0.45116
vt -0.03298 0.44774
vn 0.8129 0.4601 -0.3571
f 562/562/188 563/563/188 564/564/188
v -0.38257 1.09921 0.03768
v -0.37027 1.08945 0.05309
v -0.37954 1.10898 0.05716
vt 0.01319 0.38472
vt 0.01858 0.38131
vt 0.02000 0.38814
vn -0.8129 -0.4601 0.3571
f 565/565/189 566/566/189 567/567/189
v -0.38257 1.09921 0.03768
v -0.37954 1.10898 0.05716
v -0.04717 1.28902 -0.10963
vt -0.13390 0.01319
vt -0.13284 0.02000
vt -0.01651 -0.03837
vn -0.5659 0.7689 -0.2976
f 568/568/190 569/569/190 570/570/190
v -0.04717 1.28902 -0.10963
v -0.37954 1.10898 0.05716
v -0.04414 1.29879 -0.09015
vt -0.01651 -0.03837
vt -0.13284 0.02000
vt -0.01545 -0.03155
vn -0.5659 0.7689 -0.2976
f 571/571/191 572/572/191 573/573/191
v -0.04717 1.28902 -0.10963
v -0.04414 1.29879 -0.09015
v -0.03488 1.27926 -0.09422
vt -0.03837 0.45116
vt -0.03155 0.45458
vt -0.03298 0.44774
vn 0.8129 0.4601 -0.3571
f 574/574/192 575/575/192 576/576/192
v -0.37954 1.10898 0.05716
v -0.37027 1.08945 0.05309
v -0.36724 1.09921 0.07257
vt 0.02000 0.38814
vt 0.01858 0.38131
vt 0.02540 0.38472
vn -0.8129 -0.4601 0.3571
f 577/577/193 578/578/193 579/579/193
v -0.37954 1.10898 0.05716
v -0.36724 1.09921 0.07257
v -0.04414 1.29879 -0.09015
vt -0.13284 0.02000
vt -0.12853 0.02540
vt -0.01545 -0.03155
vn -0.1637 0.7689 0.6180
f 580/580/194 581/581/194 582/582/194
v -0.04414 1.29879 -0.09015
v -0.36724 1.09921 0.07257
v -0.03185 1.28902 -0.07475
vt -0.01545 -0.03155
vt -0.12853 0.02540
vt -0.01115 -0.02616
vn -0.1637 0.7689 0.6180
f 583/583/195 584/584/195 585/585/195
v -0.04414 1.29879 -0.09015
v -0.03185 1.28902 -0.07475
v -0.03488 1.27926 -0.09422
vt -0.03155 0.45458
vt -0.02616 0.45116
vt -0.03298 0.44774
vn 0.8129 0.4601 -0.3571
f 586/586/196 587/587/196 588/588/196
v -0.36724 1.09921 0.07257
v -0.37027 1.08945 0.05309
v -0.35798 1.07968 0.06850
vt 0.02540 0.38472
vt 0.01858 0.38131
vt 0.02397 0.37789
vn -0.8129 -0.4601 0.3571
f 589/589/197 590/590/197 591/591/197
v -0.36724 1.09921 0.07257
v -0.35798 1.07968 0.06850
v -0.03185 1.28902 -0.07475
vt -0.12853 0.38472
vt -0.12529 0.37789
vt -0.01115 0.45116
vn 0.4021 0.0000 0.9156
f 592/592/198 593/593/198 594/594/198
v -0.03185 1.28902 -0.07475
v -0.35798 1.07968 0.06850
v -0.02258 1.26949 -0.07882
vt -0.01115 0.45116
vt -0.12529 0.37789
vt -0.00790 0.44432
vn 0.4021 0.0000 0.9156
f 595/595/199 596/596/199 597/597/199
v -0.03185 1.28902 -0.07475
v -0.02258 1.26949 -0.07882
v -0.03488 1.27926 -0.09422
vt -0.02616 0.45116
vt -0.02759 0.44432
vt -0.03298 0.44774
vn 0.8129 0.4601 -0.3571
f 598/598/200 599/599/200 600/600/200
v -0.35798 1.07968 0.06850
v -0.37027 1.08945 0.05309
v -0.36100 1.06991 0.04902
vt 0.02397 0.37789
vt 0.01858 0.38131
vt 0.01716 0.37447
vn -0.8129 -0.4601 0.3571
f 601/601/201 602/602/201 603/603/201
v -0.35798 1.07968 0.06850
v -0.36100 1.06991 0.04902
v -0.02258 1.26949 -0.07882
vt -0.12529 0.02397
vt -0.12635 0.01716
vt -0.00790 -0.02759
vn 0.5659 -0.7689 0.2976
f 604/604/202 605/605/202 606/606/202
v -0.02258 1.26949 -0.07882
v -0.36100 1.06991 0.04902
v -0.02561 1.25972 -0.09829
vt -0.00790 -0.02759
vt -0.12635 0.01716
vt -0.00896 -0.03440
vn 0.5659 -0.7689 0.2976
f 607/607/203 608/608/203 609/609/203
v -0.02258 1.26949 -0.07882
v -0.02561 1.25972 -0.09829
v -0.03488 1.27926 -0.09422
vt -0.02759 0.44432
vt -0.03440 0.44090
vt -0.03298 0.44774
vn 0.8129 0.4601 -0.3571
f 610/610/204 611/611/204 612/612/204