mtllib ruins_parts.mtl
o Stair_Fragment
usemtl concrete
v -0.69524 0.00000 0.93458
v -0.69524 0.24000 0.93458
v -0.70440 0.00000 0.53469
vt 0.32710 0.00000
vt 0.32710 0.08400
vt 0.18714 0.00000
vn -0.9997 0.0000 0.0229
f 1/1/1 2/2/1 3/3/1
v 0.69524 0.00000 0.50263
v -0.69524 0.00000 0.93458
v -0.70440 0.00000 0.53469
vt 0.24333 0.17592
vt -0.24333 0.32710
vt -0.24654 0.18714
vn 0.0000 -1.0000 0.0000
f 4/4/2 5/5/2 6/6/2
v -0.70440 0.00000 0.53469
v -0.69524 0.24000 0.93458
v -0.70440 0.24000 0.53469
vt 0.18714 0.00000
vt 0.32710 0.08400
vt 0.18714 0.08400
vn -0.9997 0.0000 0.0229
f 7/7/3 8/8/3 9/9/3
v -0.70440 0.24000 0.53469
v 0.69524 0.00000 0.50263
v -0.70440 0.00000 0.53469
vt -0.24654 0.08400
vt 0.24333 0.00000
vt -0.24654 0.00000
vn -0.0229 0.0000 -0.9997
f 10/10/4 11/11/4 12/12/4
v -0.69524 0.00000 0.93458
v 0.70440 0.24000 0.90252
v -0.69524 0.24000 0.93458
vt -0.24333 0.00000
vt 0.24654 0.08400
vt -0.24333 0.08400
vn 0.0229 0.0000 0.9997
f 13/13/5 14/14/5 15/15/5
v 0.70440 0.00000 0.90252
v -0.69524 0.00000 0.93458
v 0.69524 0.00000 0.50263
vt 0.24654 0.31588
vt -0.24333 0.32710
vt 0.24333 0.17592
vn 0.0000 -1.0000 0.0000
f 16/16/6 17/17/6 18/18/6
v 0.70440 0.00000 0.90252
v 0.70440 0.24000 0.90252
v -0.69524 0.00000 0.93458
vt 0.24654 0.00000
vt 0.24654 0.08400
vt -0.24333 0.00000
vn 0.0229 0.0000 0.9997
f 19/19/7 20/20/7 21/21/7
v -0.69524 0.24000 0.93458
v 0.70440 0.24000 0.90252
v -0.70440 0.24000 0.53469
vt -0.24333 0.32710
vt 0.24654 0.31588
vt -0.24654 0.18714
vn 0.0000 1.0000 0.0000
f 22/22/8 23/23/8 24/24/8
v 0.69524 0.24000 0.50263
v 0.69524 0.00000 0.50263
v -0.70440 0.24000 0.53469
vt 0.24333 0.08400
vt 0.24333 0.00000
vt -0.24654 0.08400
vn -0.0229 0.0000 -0.9997
f 25/25/9 26/26/9 27/27/9
v -0.70440 0.24000 0.53469
v 0.70440 0.24000 0.90252
v 0.69524 0.24000 0.50263
vt -0.24654 0.18714
vt 0.24654 0.31588
vt 0.24333 0.17592
vn 0.0000 1.0000 0.0000
f 28/28/10 29/29/10 30/30/10
v 0.69524 0.24000 0.50263
v 0.70440 0.00000 0.90252
v 0.69524 0.00000 0.50263
vt 0.17592 0.08400
vt 0.31588 0.00000
vt 0.17592 0.00000
vn 0.9997 0.0000 -0.0229
f 31/31/11 32/32/11 33/33/11
v 0.70440 0.24000 0.90252
v 0.70440 0.00000 0.90252
v 0.69524 0.24000 0.50263
vt 0.31588 0.08400
vt 0.31588 0.00000
vt 0.17592 0.08400
vn 0.9997 0.0000 -0.0229
f 34/34/12 35/35/12 36/36/12
v -0.70391 0.24000 0.54156
v -0.70391 0.48000 0.54156
v -0.69392 0.24000 0.14169
vt 0.18955 0.08400
vt 0.18955 0.16800
vt 0.04959 0.08400
vn -0.9997 0.0000 -0.0250
f 37/37/13 38/38/13 39/39/13
v 0.66565 0.24000 0.17565
v -0.70391 0.24000 0.54156
v -0.69392 0.24000 0.14169
vt 0.23298 0.06148
vt -0.24637 0.18955
vt -0.24287 0.04959
vn 0.0000 -1.0000 0.0000
f 40/40/14 41/41/14 42/42/14
v -0.69392 0.24000 0.14169
v -0.70391 0.48000 0.54156
v -0.69392 0.48000 0.14169
vt 0.04959 0.08400
vt 0.18955 0.16800
vt 0.04959 0.16800
vn -0.9997 0.0000 -0.0250
f 43/43/15 44/44/15 45/45/15
v -0.69392 0.48000 0.14169
v 0.66565 0.24000 0.17565
v -0.69392 0.24000 0.14169
vt -0.24287 0.16800
vt 0.23298 0.08400
vt -0.24287 0.08400
vn 0.0250 0.0000 -0.9997
f 46/46/16 47/47/16 48/48/16
v -0.70391 0.24000 0.54156
v 0.65567 0.48000 0.57552
v -0.70391 0.48000 0.54156
vt -0.24637 0.08400
vt 0.22948 0.16800
vt -0.24637 0.16800
vn -0.0250 0.0000 0.9997
f 49/49/17 50/50/17 51/51/17
v 0.65567 0.24000 0.57552
v -0.70391 0.24000 0.54156
v 0.66565 0.24000 0.17565
vt 0.22948 0.20143
vt -0.24637 0.18955
vt 0.23298 0.06148
vn 0.0000 -1.0000 0.0000
f 52/52/18 53/53/18 54/54/18
v 0.65567 0.24000 0.57552
v 0.65567 0.48000 0.57552
v -0.70391 0.24000 0.54156
vt 0.22948 0.08400
vt 0.22948 0.16800
vt -0.24637 0.08400
vn -0.0250 0.0000 0.9997
f 55/55/19 56/56/19 57/57/19
v -0.70391 0.48000 0.54156
v 0.65567 0.48000 0.57552
v -0.69392 0.48000 0.14169
vt -0.24637 0.18955
vt 0.22948 0.20143
vt -0.24287 0.04959
vn 0.0000 1.0000 0.0000
f 58/58/20 59/59/20 60/60/20
v 0.66565 0.48000 0.17565
v 0.66565 0.24000 0.17565
v -0.69392 0.48000 0.14169
vt 0.23298 0.16800
vt 0.23298 0.08400
vt -0.24287 0.16800
vn 0.0250 0.0000 -0.9997
f 61/61/21 62/62/21 63/63/21
v -0.69392 0.48000 0.14169
v 0.65567 0.48000 0.57552
v 0.66565 0.48000 0.17565
vt -0.24287 0.04959
vt 0.22948 0.20143
vt 0.23298 0.06148
vn 0.0000 1.0000 0.0000
f 64/64/22 65/65/22 66/66/22
v 0.66565 0.48000 0.17565
v 0.65567 0.24000 0.57552
v 0.66565 0.24000 0.17565
vt 0.06148 0.16800
vt 0.20143 0.08400
vt 0.06148 0.08400
vn 0.9997 0.0000 0.0250
f 67/67/23 68/68/23 69/69/23
v 0.65567 0.48000 0.57552
v 0.65567 0.24000 0.57552
v 0.66565 0.48000 0.17565
vt 0.20143 0.16800
vt 0.20143 0.08400
vt 0.06148 0.16800
vn 0.9997 0.0000 0.0250
f 70/70/24 71/71/24 72/72/24
v -0.66708 0.48000 0.21210
v -0.66708 0.72000 0.21210
v -0.67528 0.48000 -0.18781
vt 0.07424 0.16800
vt 0.07424 0.25200
vt -0.06573 0.16800
vn -0.9998 0.0000 0.0205
f 73/73/25 74/74/25 75/75/25
v 0.64444 0.48000 -0.21489
v -0.66708 0.48000 0.21210
v -0.67528 0.48000 -0.18781
vt 0.22555 -0.07521
vt -0.23348 0.07424
vt -0.23635 -0.06573
vn 0.0000 -1.0000 0.0000
f 76/76/26 77/77/26 78/78/26
v -0.67528 0.48000 -0.18781
v -0.66708 0.72000 0.21210
v -0.67528 0.72000 -0.18781
vt -0.06573 0.16800
vt 0.07424 0.25200
vt -0.06573 0.25200
vn -0.9998 0.0000 0.0205
f 79/79/27 80/80/27 81/81/27
v -0.67528 0.72000 -0.18781
v 0.64444 0.48000 -0.21489
v -0.67528 0.48000 -0.18781
vt -0.23635 0.25200
vt 0.22555 0.16800
vt -0.23635 0.16800
vn -0.0205 0.0000 -0.9998
f 82/82/28 83/83/28 84/84/28
v -0.66708 0.48000 0.21210
v 0.65264 0.72000 0.18503
v -0.66708 0.72000 0.21210
vt -0.23348 0.16800
vt 0.22843 0.25200
vt -0.23348 0.25200
vn 0.0205 0.0000 0.9998
f 85/85/29 86/86/29 87/87/29
v 0.65264 0.48000 0.18503
v -0.66708 0.48000 0.21210
v 0.64444 0.48000 -0.21489
vt 0.22843 0.06476
vt -0.23348 0.07424
vt 0.22555 -0.07521
vn 0.0000 -1.0000 0.0000
f 88/88/30 89/89/30 90/90/30
v 0.65264 0.48000 0.18503
v 0.65264 0.72000 0.18503
v -0.66708 0.48000 0.21210
vt 0.22843 0.16800
vt 0.22843 0.25200
vt -0.23348 0.16800
vn 0.0205 0.0000 0.9998
f 91/91/31 92/92/31 93/93/31
v -0.66708 0.72000 0.21210
v 0.65264 0.72000 0.18503
v -0.67528 0.72000 -0.18781
vt -0.23348 0.07424
vt 0.22843 0.06476
vt -0.23635 -0.06573
vn 0.0000 1.0000 0.0000
f 94/94/32 95/95/32 96/96/32
v 0.64444 0.72000 -0.21489
v 0.64444 0.48000 -0.21489
v -0.67528 0.72000 -0.18781
vt 0.22555 0.25200
vt 0.22555 0.16800
vt -0.23635 0.25200
vn -0.0205 0.0000 -0.9998
f 97/97/33 98/98/33 99/99/33
v -0.67528 0.72000 -0.18781
v 0.65264 0.72000 0.18503
v 0.64444 0.72000 -0.21489
vt -0.23635 -0.06573
vt 0.22843 0.06476
vt 0.22555 -0.07521
vn 0.0000 1.0000 0.0000
f 100/100/34 101/101/34 102/102/34
v 0.64444 0.72000 -0.21489
v 0.65264 0.48000 0.18503
v 0.64444 0.48000 -0.21489
vt -0.07521 0.25200
vt 0.06476 0.16800
vt -0.07521 0.16800
vn 0.9998 0.0000 -0.0205
f 103/103/35 104/104/35 105/105/35
v 0.65264 0.72000 0.18503
v 0.65264 0.48000 0.18503
v 0.64444 0.72000 -0.21489
vt 0.06476 0.25200
vt 0.06476 0.16800
vt -0.07521 0.25200
vn 0.9998 0.0000 -0.0205
f 106/106/36 107/107/36 108/108/36
v -0.64851 0.72000 -0.14608
v -0.64851 0.96000 -0.14608
v -0.65812 0.72000 -0.54597
vt -0.05113 0.25200
vt -0.05113 0.33600
vt -0.19109 0.25200
vn -0.9997 0.0000 0.0240
f 109/109/37 110/110/37 111/111/37
v 0.62152 0.72000 -0.57671
v -0.64851 0.72000 -0.14608
v -0.65812 0.72000 -0.54597
vt 0.21753 -0.20185
vt -0.22698 -0.05113
vt -0.23034 -0.19109
vn 0.0000 -1.0000 0.0000
f 112/112/38 113/113/38 114/114/38
v -0.65812 0.72000 -0.54597
v -0.64851 0.96000 -0.14608
v -0.65812 0.96000 -0.54597
vt -0.19109 0.25200
vt -0.05113 0.33600
vt -0.19109 0.33600
vn -0.9997 0.0000 0.0240
f 115/115/39 116/116/39 117/117/39
v -0.65812 0.96000 -0.54597
v 0.62152 0.72000 -0.57671
v -0.65812 0.72000 -0.54597
vt -0.23034 0.33600
vt 0.21753 0.25200
vt -0.23034 0.25200
vn -0.0240 0.0000 -0.9997
f 118/118/40 119/119/40 120/120/40
v -0.64851 0.72000 -0.14608
v 0.63112 0.96000 -0.17682
v -0.64851 0.96000 -0.14608
vt -0.22698 0.25200
vt 0.22089 0.33600
vt -0.22698 0.33600
vn 0.0240 0.0000 0.9997
f 121/121/41 122/122/41 123/123/41
v 0.63112 0.72000 -0.17682
v -0.64851 0.72000 -0.14608
v 0.62152 0.72000 -0.57671
vt 0.22089 -0.06189
vt -0.22698 -0.05113
vt 0.21753 -0.20185
vn 0.0000 -1.0000 0.0000
f 124/124/42 125/125/42 126/126/42
v 0.63112 0.72000 -0.17682
v 0.63112 0.96000 -0.17682
v -0.64851 0.72000 -0.14608
vt 0.22089 0.25200
vt 0.22089 0.33600
vt -0.22698 0.25200
vn 0.0240 0.0000 0.9997
f 127/127/43 128/128/43 129/129/43
v -0.64851 0.96000 -0.14608
v 0.63112 0.96000 -0.17682
v -0.65812 0.96000 -0.54597
vt -0.22698 -0.05113
vt 0.22089 -0.06189
vt -0.23034 -0.19109
vn 0.0000 1.0000 0.0000
f 130/130/44 131/131/44 132/132/44
v 0.62152 0.96000 -0.57671
v 0.62152 0.72000 -0.57671
v -0.65812 0.96000 -0.54597
vt 0.21753 0.33600
vt 0.21753 0.25200
vt -0.23034 0.33600
vn -0.0240 0.0000 -0.9997
f 133/133/45 134/134/45 135/135/45
v -0.65812 0.96000 -0.54597
v 0.63112 0.96000 -0.17682
v 0.62152 0.96000 -0.57671
vt -0.23034 -0.19109
vt 0.22089 -0.06189
vt 0.21753 -0.20185
vn 0.0000 1.0000 0.0000
f 136/136/46 137/137/46 138/138/46
v 0.62152 0.96000 -0.57671
v 0.63112 0.72000 -0.17682
v 0.62152 0.72000 -0.57671
vt -0.20185 0.33600
vt -0.06189 0.25200
vt -0.20185 0.25200
vn 0.9997 0.0000 -0.0240
f 139/139/47 140/140/47 141/141/47
v 0.63112 0.96000 -0.17682
v 0.63112 0.72000 -0.17682
v 0.62152 0.96000 -0.57671
vt -0.06189 0.33600
vt -0.06189 0.25200
vt -0.20185 0.33600
vn 0.9997 0.0000 -0.0240
f 142/142/48 143/143/48 144/144/48
v -0.63066 0.96000 -0.53467
v -0.63066 1.20000 -0.53467
v -0.62213 0.96000 -0.93458
vt -0.18714 0.33600
vt -0.18714 0.42000
vt -0.32710 0.33600
vn -0.9998 0.0000 -0.0213
f 145/145/49 146/146/49 147/147/49
v 0.61759 0.96000 -0.90811
v -0.63066 0.96000 -0.53467
v -0.62213 0.96000 -0.93458
vt 0.21616 -0.31784
vt -0.22073 -0.18714
vt -0.21774 -0.32710
vn 0.0000 -1.0000 0.0000
f 148/148/50 149/149/50 150/150/50
v -0.62213 0.96000 -0.93458
v -0.63066 1.20000 -0.53467
v -0.62213 1.20000 -0.93458
vt -0.32710 0.33600
vt -0.18714 0.42000
vt -0.32710 0.42000
vn -0.9998 0.0000 -0.0213
f 151/151/51 152/152/51 153/153/51
v -0.62213 1.20000 -0.93458
v 0.61759 0.96000 -0.90811
v -0.62213 0.96000 -0.93458
vt -0.21774 0.42000
vt 0.21616 0.33600
vt -0.21774 0.33600
vn 0.0213 0.0000 -0.9998
f 154/154/52 155/155/52 156/156/52
v -0.63066 0.96000 -0.53467
v 0.60905 1.20000 -0.50820
v -0.63066 1.20000 -0.53467
vt -0.22073 0.33600
vt 0.21317 0.42000
vt -0.22073 0.42000
vn -0.0213 0.0000 0.9998
f 157/157/53 158/158/53 159/159/53
v 0.60905 0.96000 -0.50820
v -0.63066 0.96000 -0.53467
v 0.61759 0.96000 -0.90811
vt 0.21317 -0.17787
vt -0.22073 -0.18714
vt 0.21616 -0.31784
vn 0.0000 -1.0000 0.0000
f 160/160/54 161/161/54 162/162/54
v 0.60905 0.96000 -0.50820
v 0.60905 1.20000 -0.50820
v -0.63066 0.96000 -0.53467
vt 0.21317 0.33600
vt 0.21317 0.42000
vt -0.22073 0.33600
vn -0.0213 0.0000 0.9998
f 163/163/55 164/164/55 165/165/55
v -0.63066 1.20000 -0.53467
v 0.60905 1.20000 -0.50820
v -0.62213 1.20000 -0.93458
vt -0.22073 -0.18714
vt 0.21317 -0.17787
vt -0.21774 -0.32710
vn 0.0000 1.0000 0.0000
f 166/166/56 167/167/56 168/168/56
v 0.61759 1.20000 -0.90811
v 0.61759 0.96000 -0.90811
v -0.62213 1.20000 -0.93458
vt 0.21616 0.42000
vt 0.21616 0.33600
vt -0.21774 0.42000
vn 0.0213 0.0000 -0.9998
f 169/169/57 170/170/57 171/171/57
v -0.62213 1.20000 -0.93458
v 0.60905 1.20000 -0.50820
v 0.61759 1.20000 -0.90811
vt -0.21774 -0.32710
vt 0.21317 -0.17787
vt 0.21616 -0.31784
vn 0.0000 1.0000 0.0000
f 172/172/58 173/173/58 174/174/58
v 0.61759 1.20000 -0.90811
v 0.60905 0.96000 -0.50820
v 0.61759 0.96000 -0.90811
vt -0.31784 0.42000
vt -0.17787 0.33600
vt -0.31784 0.33600
vn 0.9998 0.0000 0.0213
f 175/175/59 176/176/59 177/177/59
v 0.60905 1.20000 -0.50820
v 0.60905 0.96000 -0.50820
v 0.61759 1.20000 -0.90811
vt -0.17787 0.42000
vt -0.17787 0.33600
vt -0.31784 0.42000
vn 0.9998 0.0000 0.0213
f 178/178/60 179/179/60 180/180/60