mtllib ruins_parts.mtl
o Wall_Broken
usemtl concrete
v 1.73044 0.00000 -0.15000
v -1.66956 0.00000 -0.15000
v -1.66956 2.47000 -0.15000
vt 0.60565 0.00000
vt -0.58435 0.00000
vt -0.58435 0.86450
vn 0.0000 0.0000 -1.0000
f 1/1/1 2/2/1 3/3/1
v 1.15663 1.42925 -0.15000
v 1.73044 1.17000 -0.15000
v 1.73044 0.00000 -0.15000
vt 0.40482 0.50024
vt 0.60565 0.40950
vt 0.60565 0.00000
vn 0.0000 0.0000 -1.0000
f 4/4/2 5/5/2 6/6/2
v -0.58353 2.12750 -0.15000
v 0.03162 1.91558 -0.15000
v 0.66074 1.63464 -0.15000
vt -0.20423 0.74463
vt 0.01107 0.67045
vt 0.23126 0.57213
vn 0.0000 0.0000 -1.0000
f 7/7/3 8/8/3 9/9/3
v -1.73044 2.53119 -0.15000
v -1.08341 2.46421 -0.15000
v -0.58353 2.12750 -0.15000
vt -0.60565 0.88592
vt -0.37919 0.86247
vt -0.20423 0.74463
vn 0.0000 0.0000 -1.0000
f 10/10/4 11/11/4 12/12/4
v 1.73044 0.00000 -0.15000
v -1.66956 2.47000 -0.15000
v -1.73044 2.53119 -0.15000
vt 0.60565 0.00000
vt -0.58435 0.86450
vt -0.60565 0.88592
vn 0.0000 0.0000 -1.0000
f 13/13/5 14/14/5 15/15/5
v 0.66074 1.63464 -0.15000
v 1.15663 1.42925 -0.15000
v 1.73044 0.00000 -0.15000
vt 0.23126 0.57213
vt 0.40482 0.50024
vt 0.60565 0.00000
vn 0.0000 0.0000 -1.0000
f 16/16/6 17/17/6 18/18/6
v -1.73044 2.53119 -0.15000
v -0.58353 2.12750 -0.15000
v 0.66074 1.63464 -0.15000
vt -0.60565 0.88592
vt -0.20423 0.74463
vt 0.23126 0.57213
vn 0.0000 0.0000 -1.0000
f 19/19/7 20/20/7 21/21/7
v 0.66074 1.63464 -0.15000
v 1.73044 0.00000 -0.15000
v -1.73044 2.53119 -0.15000
vt 0.23126 0.57213
vt 0.60565 0.00000
vt -0.60565 0.88592
vn -0.0000 -0.0000 -1.0000
f 22/22/8 23/23/8 24/24/8
v -1.66956 2.47000 0.15000
v -1.66956 0.00000 0.15000
v 1.73044 0.00000 0.15000
vt -0.58435 0.86450
vt -0.58435 0.00000
vt 0.60565 0.00000
vn -0.0000 0.0000 1.0000
f 25/25/9 26/26/9 27/27/9
v 1.73044 0.00000 0.15000
v 1.73044 1.17000 0.15000
v 1.15663 1.42925 0.15000
vt 0.60565 0.00000
vt 0.60565 0.40950
vt 0.40482 0.50024
vn 0.0000 -0.0000 1.0000
f 28/28/10 29/29/10 30/30/10
v 0.66074 1.63464 0.15000
v 0.03162 1.91558 0.15000
v -0.58353 2.12750 0.15000
vt 0.23126 0.57213
vt 0.01107 0.67045
vt -0.20423 0.74463
vn 0.0000 0.0000 1.0000
f 31/31/11 32/32/11 33/33/11
v -0.58353 2.12750 0.15000
v -1.08341 2.46421 0.15000
v -1.73044 2.53119 0.15000
vt -0.20423 0.74463
vt -0.37919 0.86247
vt -0.60565 0.88592
vn 0.0000 0.0000 1.0000
f 34/34/12 35/35/12 36/36/12
v -1.73044 2.53119 0.15000
v -1.66956 2.47000 0.15000
v 1.73044 0.00000 0.15000
vt -0.60565 0.88592
vt -0.58435 0.86450
vt 0.60565 0.00000
vn 0.0000 0.0000 1.0000
f 37/37/13 38/38/13 39/39/13
v 1.73044 0.00000 0.15000
v 1.15663 1.42925 0.15000
v 0.66074 1.63464 0.15000
vt 0.60565 0.00000
vt 0.40482 0.50024
vt 0.23126 0.57213
vn 0.0000 0.0000 1.0000
f 40/40/14 41/41/14 42/42/14
v 0.66074 1.63464 0.15000
v -0.58353 2.12750 0.15000
v -1.73044 2.53119 0.15000
vt 0.23126 0.57213
vt -0.20423 0.74463
vt -0.60565 0.88592
vn 0.0000 0.0000 1.0000
f 43/43/15 44/44/15 45/45/15
v -1.73044 2.53119 0.15000
v 1.73044 0.00000 0.15000
v 0.66074 1.63464 0.15000
vt -0.60565 0.88592
vt 0.60565 0.00000
vt 0.23126 0.57213
vn -0.0000 -0.0000 1.0000
f 46/46/16 47/47/16 48/48/16
v 1.73044 0.00000 0.15000
v -1.66956 0.00000 0.15000
v 1.73044 0.00000 -0.15000
vt 0.60565 0.05250
vt -0.58435 0.05250
vt 0.60565 -0.05250
vn -0.0000 -1.0000 -0.0000
f 49/49/17 50/50/17 51/51/17
v 1.73044 0.00000 -0.15000
v -1.66956 0.00000 0.15000
v -1.66956 0.00000 -0.15000
vt 0.60565 -0.05250
vt -0.58435 0.05250
vt -0.58435 -0.05250
vn -0.0000 -1.0000 -0.0000
f 52/52/18 53/53/18 54/54/18
v 1.73044 1.17000 0.15000
v 1.73044 0.00000 0.15000
v 1.73044 1.17000 -0.15000
vt 0.05250 0.40950
vt 0.05250 0.00000
vt -0.05250 0.40950
vn 1.0000 0.0000 0.0000
f 55/55/19 56/56/19 57/57/19
v 1.73044 1.17000 -0.15000
v 1.73044 0.00000 0.15000
v 1.73044 0.00000 -0.15000
vt -0.05250 0.40950
vt 0.05250 0.00000
vt -0.05250 0.00000
vn 1.0000 0.0000 0.0000
f 58/58/20 59/59/20 60/60/20
v 1.15663 1.42925 0.15000
v 1.73044 1.17000 0.15000
v 1.15663 1.42925 -0.15000
vt 0.40482 0.05250
vt 0.60565 0.05250
vt 0.40482 -0.05250
vn 0.4117 0.9113 0.0000
f 61/61/21 62/62/21 63/63/21
v 1.15663 1.42925 -0.15000
v 1.73044 1.17000 0.15000
v 1.73044 1.17000 -0.15000
vt 0.40482 -0.05250
vt 0.60565 0.05250
vt 0.60565 -0.05250
vn 0.4117 0.9113 0.0000
f 64/64/22 65/65/22 66/66/22
v 0.66074 1.63464 0.15000
v 1.15663 1.42925 0.15000
v 0.66074 1.63464 -0.15000
vt 0.23126 0.05250
vt 0.40482 0.05250
vt 0.23126 -0.05250
vn 0.3827 0.9239 0.0000
f 67/67/23 68/68/23 69/69/23
v 0.66074 1.63464 -0.15000
v 1.15663 1.42925 0.15000
v 1.15663 1.42925 -0.15000
vt 0.23126 -0.05250
vt 0.40482 0.05250
vt 0.40482 -0.05250
vn 0.3827 0.9239 0.0000
f 70/70/24 71/71/24 72/72/24
v 0.03162 1.91558 0.15000
v 0.66074 1.63464 0.15000
v 0.03162 1.91558 -0.15000
vt 0.01107 0.05250
vt 0.23126 0.05250
vt 0.01107 -0.05250
vn 0.4078 0.9131 0.0000
f 73/73/25 74/74/25 75/75/25
v 0.03162 1.91558 -0.15000
v 0.66074 1.63464 0.15000
v 0.66074 1.63464 -0.15000
vt 0.01107 -0.05250
vt 0.23126 0.05250
vt 0.23126 -0.05250
vn 0.4078 0.9131 0.0000
f 76/76/26 77/77/26 78/78/26
v -0.58353 2.12750 0.15000
v 0.03162 1.91558 0.15000
v -0.58353 2.12750 -0.15000
vt -0.20423 0.05250
vt 0.01107 0.05250
vt -0.20423 -0.05250
vn 0.3257 0.9455 0.0000
f 79/79/27 80/80/27 81/81/27
v -0.58353 2.12750 -0.15000
v 0.03162 1.91558 0.15000
v 0.03162 1.91558 -0.15000
vt -0.20423 -0.05250
vt 0.01107 0.05250
vt 0.01107 -0.05250
vn 0.3257 0.9455 0.0000
f 82/82/28 83/83/28 84/84/28
v -1.08341 2.46421 0.15000
v -0.58353 2.12750 0.15000
v -1.08341 2.46421 -0.15000
vt -0.37919 0.05250
vt -0.20423 0.05250
vt -0.37919 -0.05250
vn 0.5587 0.8294 0.0000
f 85/85/29 86/86/29 87/87/29
v -1.08341 2.46421 -0.15000
v -0.58353 2.12750 0.15000
v -0.58353 2.12750 -0.15000
vt -0.37919 -0.05250
vt -0.20423 0.05250
vt -0.20423 -0.05250
vn 0.5587 0.8294 0.0000
f 88/88/30 89/89/30 90/90/30
v -1.73044 2.53119 0.15000
v -1.08341 2.46421 0.15000
v -1.73044 2.53119 -0.15000
vt -0.60565 0.05250
vt -0.37919 0.05250
vt -0.60565 -0.05250
vn 0.1030 0.9947 0.0000
f 91/91/31 92/92/31 93/93/31
v -1.73044 2.53119 -0.15000
v -1.08341 2.46421 0.15000
v -1.08341 2.46421 -0.15000
vt -0.60565 -0.05250
vt -0.37919 0.05250
vt -0.37919 -0.05250
vn 0.1030 0.9947 0.0000
f 94/94/32 95/95/32 96/96/32
v -1.66956 0.00000 0.15000
v -1.66956 2.47000 0.15000
v -1.66956 0.00000 -0.15000
vt 0.05250 0.00000
vt 0.05250 0.86450
vt -0.05250 0.00000
vn -1.0000 0.0000 -0.0000
f 97/97/33 98/98/33 99/99/33
v -1.66956 0.00000 -0.15000
v -1.66956 2.47000 0.15000
v -1.66956 2.47000 -0.15000
vt -0.05250 0.00000
vt 0.05250 0.86450
vt -0.05250 0.86450
vn -1.0000 0.0000 0.0000
f 100/100/34 101/101/34 102/102/34
v -1.66956 2.47000 0.15000
v -1.73044 2.53119 0.15000
v -1.66956 2.47000 -0.15000
vt 0.05250 0.86450
vt 0.05250 0.88592
vt -0.05250 0.86450
vn -0.7089 -0.7053 0.0000
f 103/103/35 104/104/35 105/105/35
v -1.66956 2.47000 -0.15000
v -1.73044 2.53119 0.15000
v -1.73044 2.53119 -0.15000
vt -0.05250 0.86450
vt 0.05250 0.88592
vt -0.05250 0.88592
vn -0.7089 -0.7053 -0.0000
f 106/106/36 107/107/36 108/108/36
usemtl rebar
v -1.24839 2.06014 0.00000
v -1.26956 2.06611 0.00000
v -1.25897 2.06313 -0.01905
vt -0.43693 0.00000
vt -0.44435 0.00000
vt -0.44064 -0.00667
vn -0.2714 -0.9625 0.0000
f 109/109/37 110/110/37 111/111/37
v -1.24839 2.06014 0.00000
v -1.25897 2.06313 -0.01905
v -1.15711 2.38378 0.00000
vt 0.00000 0.72105
vt -0.00667 0.72209
vt 0.00000 0.83432
vn 0.8335 -0.2351 -0.5000
f 112/112/38 113/113/38 114/114/38
v -1.15711 2.38378 0.00000
v -1.25897 2.06313 -0.01905
v -1.16770 2.38677 -0.01905
vt 0.00000 0.83432
vt -0.00667 0.72209
vt -0.00667 0.83537
vn 0.8335 -0.2351 -0.5000
f 115/115/39 116/116/39 117/117/39
v -1.15711 2.38378 0.00000
v -1.16770 2.38677 -0.01905
v -1.17829 2.38976 0.00000
vt -0.40499 0.00000
vt -0.40870 -0.00667
vt -0.41240 0.00000
vn 0.2714 0.9625 0.0000
f 118/118/40 119/119/40 120/120/40
v -1.25897 2.06313 -0.01905
v -1.26956 2.06611 0.00000
v -1.28015 2.06910 -0.01905
vt -0.44064 -0.00667
vt -0.44435 0.00000
vt -0.44805 -0.00667
vn -0.2714 -0.9625 0.0000
f 121/121/41 122/122/41 123/123/41
v -1.25897 2.06313 -0.01905
v -1.28015 2.06910 -0.01905
v -1.16770 2.38677 -0.01905
vt -0.44064 0.72209
vt -0.44805 0.72418
vt -0.40870 0.83537
vn 0.0000 0.0000 -1.0000
f 124/124/42 125/125/42 126/126/42
v -1.16770 2.38677 -0.01905
v -1.28015 2.06910 -0.01905
v -1.18888 2.39274 -0.01905
vt -0.40870 0.83537
vt -0.44805 0.72418
vt -0.41611 0.83746
vn 0.0000 0.0000 -1.0000
f 127/127/43 128/128/43 129/129/43
v -1.16770 2.38677 -0.01905
v -1.18888 2.39274 -0.01905
v -1.17829 2.38976 0.00000
vt -0.40870 -0.00667
vt -0.41611 -0.00667
vt -0.41240 0.00000
vn 0.2714 0.9625 0.0000
f 130/130/44 131/131/44 132/132/44
v -1.28015 2.06910 -0.01905
v -1.26956 2.06611 0.00000
v -1.29073 2.07208 0.00000
vt -0.44805 -0.00667
vt -0.44435 0.00000
vt -0.45176 0.00000
vn -0.2714 -0.9625 0.0000
f 133/133/45 134/134/45 135/135/45
v -1.28015 2.06910 -0.01905
v -1.29073 2.07208 0.00000
v -1.18888 2.39274 -0.01905
vt -0.00667 0.72418
vt 0.00000 0.72523
vt -0.00667 0.83746
vn -0.8335 0.2351 -0.5000
f 136/136/46 137/137/46 138/138/46
v -1.18888 2.39274 -0.01905
v -1.29073 2.07208 0.00000
v -1.19946 2.39573 0.00000
vt -0.00667 0.83746
vt 0.00000 0.72523
vt 0.00000 0.83850
vn -0.8335 0.2351 -0.5000
f 139/139/47 140/140/47 141/141/47
v -1.18888 2.39274 -0.01905
v -1.19946 2.39573 0.00000
v -1.17829 2.38976 0.00000
vt -0.41611 -0.00667
vt -0.41981 0.00000
vt -0.41240 0.00000
vn 0.2714 0.9625 0.0000
f 142/142/48 143/143/48 144/144/48
v -1.29073 2.07208 0.00000
v -1.26956 2.06611 0.00000
v -1.28015 2.06910 0.01905
vt -0.45176 0.00000
vt -0.44435 0.00000
vt -0.44805 0.00667
vn -0.2714 -0.9625 0.0000
f 145/145/49 146/146/49 147/147/49
v -1.29073 2.07208 0.00000
v -1.28015 2.06910 0.01905
v -1.19946 2.39573 0.00000
vt 0.00000 0.72523
vt 0.00667 0.72418
vt 0.00000 0.83850
vn -0.8335 0.2351 0.5000
f 148/148/50 149/149/50 150/150/50
v -1.19946 2.39573 0.00000
v -1.28015 2.06910 0.01905
v -1.18888 2.39274 0.01905
vt 0.00000 0.83850
vt 0.00667 0.72418
vt 0.00667 0.83746
vn -0.8335 0.2351 0.5000
f 151/151/51 152/152/51 153/153/51
v -1.19946 2.39573 0.00000
v -1.18888 2.39274 0.01905
v -1.17829 2.38976 0.00000
vt -0.41981 0.00000
vt -0.41611 0.00667
vt -0.41240 0.00000
vn 0.2714 0.9625 0.0000
f 154/154/52 155/155/52 156/156/52
v -1.28015 2.06910 0.01905
v -1.26956 2.06611 0.00000
v -1.25897 2.06313 0.01905
vt -0.44805 0.00667
vt -0.44435 0.00000
vt -0.44064 0.00667
vn -0.2714 -0.9625 0.0000
f 157/157/53 158/158/53 159/159/53
v -1.28015 2.06910 0.01905
v -1.25897 2.06313 0.01905
v -1.18888 2.39274 0.01905
vt -0.44805 0.72418
vt -0.44064 0.72209
vt -0.41611 0.83746
vn -0.0000 0.0000 1.0000
f 160/160/54 161/161/54 162/162/54
v -1.18888 2.39274 0.01905
v -1.25897 2.06313 0.01905
v -1.16770 2.38677 0.01905
vt -0.41611 0.83746
vt -0.44064 0.72209
vt -0.40870 0.83537
vn -0.0000 0.0000 1.0000
f 163/163/55 164/164/55 165/165/55
v -1.18888 2.39274 0.01905
v -1.16770 2.38677 0.01905
v -1.17829 2.38976 0.00000
vt -0.41611 0.00667
vt -0.40870 0.00667
vt -0.41240 0.00000
vn 0.2714 0.9625 0.0000
f 166/166/56 167/167/56 168/168/56
v -1.25897 2.06313 0.01905
v -1.26956 2.06611 0.00000
v -1.24839 2.06014 0.00000
vt -0.44064 0.00667
vt -0.44435 0.00000
vt -0.43693 0.00000
vn -0.2714 -0.9625 0.0000
f 169/169/57 170/170/57 171/171/57
v -1.25897 2.06313 0.01905
v -1.24839 2.06014 0.00000
v -1.16770 2.38677 0.01905
vt 0.00667 0.72209
vt 0.00000 0.72105
vt 0.00667 0.83537
vn 0.8335 -0.2351 0.5000
f 172/172/58 173/173/58 174/174/58
v -1.16770 2.38677 0.01905
v -1.24839 2.06014 0.00000
v -1.15711 2.38378 0.00000
vt 0.00667 0.83537
vt 0.00000 0.72105
vt 0.00000 0.83432
vn 0.8335 -0.2351 0.5000
f 175/175/59 176/176/59 177/177/59
v -1.16770 2.38677 0.01905
v -1.15711 2.38378 0.00000
v -1.17829 2.38976 0.00000
vt -0.40870 0.00667
vt -0.40499 0.00000
vt -0.41240 0.00000
vn 0.2714 0.9625 0.0000
f 178/178/60 179/179/60 180/180/60
v -1.20238 2.42988 0.00000
v -1.20126 2.45185 0.00000
v -1.20182 2.44086 -0.01905
vt 0.00000 0.85046
vt 0.00000 0.85815
vt -0.00667 0.85430
vn -0.9987 0.0508 0.0000
f 181/181/61 182/182/61 183/183/61
v -1.20238 2.42988 0.00000
v -1.20182 2.44086 -0.01905
v -0.91937 2.41549 0.00000
vt -0.42083 0.00000
vt -0.42064 -0.00667
vt -0.32178 0.00000
vn -0.0440 -0.8649 -0.5000
f 184/184/62 185/185/62 186/186/62
v -0.91937 2.41549 0.00000
v -1.20182 2.44086 -0.01905
v -0.91881 2.42648 -0.01905
vt -0.32178 0.00000
vt -0.42064 -0.00667
vt -0.32158 -0.00667
vn -0.0440 -0.8649 -0.5000
f 187/187/63 188/188/63 189/189/63
v -0.91937 2.41549 0.00000
v -0.91881 2.42648 -0.01905
v -0.91825 2.43746 0.00000
vt 0.00000 0.84542
vt -0.00667 0.84927
vt 0.00000 0.85311
vn 0.9987 -0.0508 -0.0000
f 190/190/64 191/191/64 192/192/64
v -1.20182 2.44086 -0.01905
v -1.20126 2.45185 0.00000
v -1.20070 2.46284 -0.01905
vt -0.00667 0.85430
vt 0.00000 0.85815
vt -0.00667 0.86199
vn -0.9987 0.0508 0.0000
f 193/193/65 194/194/65 195/195/65
v -1.20182 2.44086 -0.01905
v -1.20070 2.46284 -0.01905
v -0.91881 2.42648 -0.01905
vt -0.42064 0.85430
vt -0.42025 0.86199
vt -0.32158 0.84927
vn 0.0000 -0.0000 -1.0000
f 196/196/66 197/197/66 198/198/66
v -0.91881 2.42648 -0.01905
v -1.20070 2.46284 -0.01905
v -0.91769 2.44845 -0.01905
vt -0.32158 0.84927
vt -0.42025 0.86199
vt -0.32119 0.85696
vn 0.0000 -0.0000 -1.0000
f 199/199/67 200/200/67 201/201/67
v -0.91881 2.42648 -0.01905
v -0.91769 2.44845 -0.01905
v -0.91825 2.43746 0.00000
vt -0.00667 0.84927
vt -0.00667 0.85696
vt 0.00000 0.85311
vn 0.9987 -0.0508 -0.0000
f 202/202/68 203/203/68 204/204/68
v -1.20070 2.46284 -0.01905
v -1.20126 2.45185 0.00000
v -1.20014 2.47382 0.00000
vt -0.00667 0.86199
vt 0.00000 0.85815
vt 0.00000 0.86584
vn -0.9987 0.0508 -0.0000
f 205/205/69 206/206/69 207/207/69
v -1.20070 2.46284 -0.01905
v -1.20014 2.47382 0.00000
v -0.91769 2.44845 -0.01905
vt -0.42025 -0.00667
vt -0.42005 0.00000
vt -0.32119 -0.00667
vn 0.0440 0.8649 -0.5000
f 208/208/70 209/209/70 210/210/70
v -0.91769 2.44845 -0.01905
v -1.20014 2.47382 0.00000
v -0.91713 2.45943 0.00000
vt -0.32119 -0.00667
vt -0.42005 0.00000
vt -0.32100 0.00000
vn 0.0440 0.8649 -0.5000
f 211/211/71 212/212/71 213/213/71
v -0.91769 2.44845 -0.01905
v -0.91713 2.45943 0.00000
v -0.91825 2.43746 0.00000
vt -0.00667 0.85696
vt 0.00000 0.86080
vt 0.00000 0.85311
vn 0.9987 -0.0508 -0.0000
f 214/214/72 215/215/72 216/216/72
v -1.20014 2.47382 0.00000
v -1.20126 2.45185 0.00000
v -1.20070 2.46284 0.01905
vt 0.00000 0.86584
vt 0.00000 0.85815
vt 0.00667 0.86199
vn -0.9987 0.0508 0.0000
f 217/217/73 218/218/73 219/219/73
v -1.20014 2.47382 0.00000
v -1.20070 2.46284 0.01905
v -0.91713 2.45943 0.00000
vt -0.42005 0.00000
vt -0.42025 0.00667
vt -0.32100 0.00000
vn 0.0440 0.8649 0.5000
f 220/220/74 221/221/74 222/222/74
v -0.91713 2.45943 0.00000
v -1.20070 2.46284 0.01905
v -0.91769 2.44845 0.01905
vt -0.32100 0.00000
vt -0.42025 0.00667
vt -0.32119 0.00667
vn 0.0440 0.8649 0.5000
f 223/223/75 224/224/75 225/225/75
v -0.91713 2.45943 0.00000
v -0.91769 2.44845 0.01905
v -0.91825 2.43746 0.00000
vt 0.00000 0.86080
vt 0.00667 0.85696
vt 0.00000 0.85311
vn 0.9987 -0.0508 0.0000
f 226/226/76 227/227/76 228/228/76
v -1.20070 2.46284 0.01905
v -1.20126 2.45185 0.00000
v -1.20182 2.44086 0.01905
vt 0.00667 0.86199
vt 0.00000 0.85815
vt 0.00667 0.85430
vn -0.9987 0.0508 0.0000
f 229/229/77 230/230/77 231/231/77
v -1.20070 2.46284 0.01905
v -1.20182 2.44086 0.01905
v -0.91769 2.44845 0.01905
vt -0.42025 0.86199
vt -0.42064 0.85430
vt -0.32119 0.85696
vn -0.0000 0.0000 1.0000
f 232/232/78 233/233/78 234/234/78
v -0.91769 2.44845 0.01905
v -1.20182 2.44086 0.01905
v -0.91881 2.42648 0.01905
vt -0.32119 0.85696
vt -0.42064 0.85430
vt -0.32158 0.84927
vn 0.0000 0.0000 1.0000
f 235/235/79 236/236/79 237/237/79
v -0.91769 2.44845 0.01905
v -0.91881 2.42648 0.01905
v -0.91825 2.43746 0.00000
vt 0.00667 0.85696
vt 0.00667 0.84927
vt 0.00000 0.85311
vn 0.9987 -0.0508 0.0000
f 238/238/80 239/239/80 240/240/80
v -1.20182 2.44086 0.01905
v -1.20126 2.45185 0.00000
v -1.20238 2.42988 0.00000
vt 0.00667 0.85430
vt 0.00000 0.85815
vt 0.00000 0.85046
vn -0.9987 0.0508 0.0000
f 241/241/81 242/242/81 243/243/81
v -1.20182 2.44086 0.01905
v -1.20238 2.42988 0.00000
v -0.91881 2.42648 0.01905
vt -0.42064 0.00667
vt -0.42083 0.00000
vt -0.32158 0.00667
vn -0.0440 -0.8649 0.5000
f 244/244/82 245/245/82 246/246/82
v -0.91881 2.42648 0.01905
v -1.20238 2.42988 0.00000
v -0.91937 2.41549 0.00000
vt -0.32158 0.00667
vt -0.42083 0.00000
vt -0.32178 0.00000
vn -0.0440 -0.8649 0.5000
f 247/247/83 248/248/83 249/249/83
v -0.91881 2.42648 0.01905
v -0.91937 2.41549 0.00000
v -0.91825 2.43746 0.00000
vt 0.00667 0.84927
vt 0.00000 0.84542
vt 0.00000 0.85311
vn 0.9987 -0.0508 0.0000
f 250/250/84 251/251/84 252/252/84
v -0.38136 1.30721 -0.00000
v -0.40289 1.31170 -0.00000
v -0.39212 1.30946 -0.01905
vt -0.13347 -0.00000
vt -0.14101 -0.00000
vt -0.13724 -0.00667
vn -0.2041 -0.9790 0.0000
f 253/253/85 254/254/85 255/255/85
v -0.38136 1.30721 -0.00000
v -0.39212 1.30946 -0.01905
v -0.24139 1.97868 0.00000
vt -0.00000 0.45752
vt -0.00667 0.45831
vt 0.00000 0.69254
vn 0.8478 -0.1767 -0.5000
f 256/256/86 257/257/86 258/258/86
v -0.24139 1.97868 0.00000
v -0.39212 1.30946 -0.01905
v -0.25216 1.98093 -0.01905
vt 0.00000 0.69254
vt -0.00667 0.45831
vt -0.00667 0.69332
vn 0.8478 -0.1767 -0.5000
f 259/259/87 260/260/87 261/261/87
v -0.24139 1.97868 0.00000
v -0.25216 1.98093 -0.01905
v -0.26293 1.98317 0.00000
vt -0.08449 0.00000
vt -0.08826 -0.00667
vt -0.09202 0.00000
vn 0.2041 0.9790 0.0000
f 262/262/88 263/263/88 264/264/88
v -0.39212 1.30946 -0.01905
v -0.40289 1.31170 -0.00000
v -0.41366 1.31395 -0.01905
vt -0.13724 -0.00667
vt -0.14101 -0.00000
vt -0.14478 -0.00667
vn -0.2041 -0.9790 0.0000
f 265/265/89 266/266/89 267/267/89
v -0.39212 1.30946 -0.01905
v -0.41366 1.31395 -0.01905
v -0.25216 1.98093 -0.01905
vt -0.13724 0.45831
vt -0.14478 0.45988
vt -0.08826 0.69332
vn 0.0000 0.0000 -1.0000
f 268/268/90 269/269/90 270/270/90
v -0.25216 1.98093 -0.01905
v -0.41366 1.31395 -0.01905
v -0.27370 1.98542 -0.01905
vt -0.08826 0.69332
vt -0.14478 0.45988
vt -0.09579 0.69490
vn 0.0000 0.0000 -1.0000
f 271/271/91 272/272/91 273/273/91
v -0.25216 1.98093 -0.01905
v -0.27370 1.98542 -0.01905
v -0.26293 1.98317 0.00000
vt -0.08826 -0.00667
vt -0.09579 -0.00667
vt -0.09202 0.00000
vn 0.2041 0.9790 -0.0000
f 274/274/92 275/275/92 276/276/92
v -0.41366 1.31395 -0.01905
v -0.40289 1.31170 -0.00000
v -0.42443 1.31619 -0.00000
vt -0.14478 -0.00667
vt -0.14101 -0.00000
vt -0.14855 -0.00000
vn -0.2041 -0.9790 -0.0000
f 277/277/93 278/278/93 279/279/93
v -0.41366 1.31395 -0.01905
v -0.42443 1.31619 -0.00000
v -0.27370 1.98542 -0.01905
vt -0.00667 0.45988
vt -0.00000 0.46067
vt -0.00667 0.69490
vn -0.8478 0.1767 -0.5000
f 280/280/94 281/281/94 282/282/94
v -0.27370 1.98542 -0.01905
v -0.42443 1.31619 -0.00000
v -0.28446 1.98766 0.00000
vt -0.00667 0.69490
vt -0.00000 0.46067
vt 0.00000 0.69568
vn -0.8478 0.1767 -0.5000
f 283/283/95 284/284/95 285/285/95
v -0.27370 1.98542 -0.01905
v -0.28446 1.98766 0.00000
v -0.26293 1.98317 0.00000
vt -0.09579 -0.00667
vt -0.09956 0.00000
vt -0.09202 0.00000
vn 0.2041 0.9790 0.0000
f 286/286/96 287/287/96 288/288/96
v -0.42443 1.31619 -0.00000
v -0.40289 1.31170 -0.00000
v -0.41366 1.31395 0.01905
vt -0.14855 -0.00000
vt -0.14101 -0.00000
vt -0.14478 0.00667
vn -0.2041 -0.9790 0.0000
f 289/289/97 290/290/97 291/291/97
v -0.42443 1.31619 -0.00000
v -0.41366 1.31395 0.01905
v -0.28446 1.98766 0.00000
vt -0.00000 0.46067
vt 0.00667 0.45988
vt 0.00000 0.69568
vn -0.8478 0.1767 0.5000
f 292/292/98 293/293/98 294/294/98
v -0.28446 1.98766 0.00000
v -0.41366 1.31395 0.01905
v -0.27370 1.98542 0.01905
vt 0.00000 0.69568
vt 0.00667 0.45988
vt 0.00667 0.69490
vn -0.8478 0.1767 0.5000
f 295/295/99 296/296/99 297/297/99
v -0.28446 1.98766 0.00000
v -0.27370 1.98542 0.01905
v -0.26293 1.98317 0.00000
vt -0.09956 0.00000
vt -0.09579 0.00667
vt -0.09202 0.00000
vn 0.2041 0.9790 0.0000
f 298/298/100 299/299/100 300/300/100
v -0.41366 1.31395 0.01905
v -0.40289 1.31170 -0.00000
v -0.39212 1.30946 0.01905
vt -0.14478 0.00667
vt -0.14101 -0.00000
vt -0.13724 0.00667
vn -0.2041 -0.9790 0.0000
f 301/301/101 302/302/101 303/303/101
v -0.41366 1.31395 0.01905
v -0.39212 1.30946 0.01905
v -0.27370 1.98542 0.01905
vt -0.14478 0.45988
vt -0.13724 0.45831
vt -0.09579 0.69490
vn -0.0000 -0.0000 1.0000
f 304/304/102 305/305/102 306/306/102
v -0.27370 1.98542 0.01905
v -0.39212 1.30946 0.01905
v -0.25216 1.98093 0.01905
vt -0.09579 0.69490
vt -0.13724 0.45831
vt -0.08826 0.69332
vn -0.0000 0.0000 1.0000
f 307/307/103 308/308/103 309/309/103
v -0.27370 1.98542 0.01905
v -0.25216 1.98093 0.01905
v -0.26293 1.98317 0.00000
vt -0.09579 0.00667
vt -0.08826 0.00667
vt -0.09202 0.00000
vn 0.2041 0.9790 0.0000
f 310/310/104 311/311/104 312/312/104
v -0.39212 1.30946 0.01905
v -0.40289 1.31170 -0.00000
v -0.38136 1.30721 -0.00000
vt -0.13724 0.00667
vt -0.14101 -0.00000
vt -0.13347 -0.00000
vn -0.2041 -0.9790 -0.0000
f 313/313/105 314/314/105 315/315/105
v -0.39212 1.30946 0.01905
v -0.38136 1.30721 -0.00000
v -0.25216 1.98093 0.01905
vt 0.00667 0.45831
vt -0.00000 0.45752
vt 0.00667 0.69332
vn 0.8478 -0.1767 0.5000
f 316/316/106 317/317/106 318/318/106
v -0.25216 1.98093 0.01905
v -0.38136 1.30721 -0.00000
v -0.24139 1.97868 0.00000
vt 0.00667 0.69332
vt -0.00000 0.45752
vt 0.00000 0.69254
vn 0.8478 -0.1767 0.5000
f 319/319/107 320/320/107 321/321/107
v -0.25216 1.98093 0.01905
v -0.24139 1.97868 0.00000
v -0.26293 1.98317 0.00000
vt -0.08826 0.00667
vt -0.08449 0.00000
vt -0.09202 0.00000
vn 0.2041 0.9790 0.0000
f 322/322/108 323/323/108 324/324/108
v -0.28348 2.00550 0.00000
v -0.28474 2.02746 0.00000
v -0.28411 2.01648 -0.01905
vt 0.00000 0.70193
vt 0.00000 0.70961
vt -0.00667 0.70577
vn -0.9983 -0.0575 0.0000
f 325/325/109 326/326/109 327/327/109
v -0.28348 2.00550 0.00000
v -0.28411 2.01648 -0.01905
v -0.05498 2.01866 0.00000
vt -0.09922 0.00000
vt -0.09944 -0.00667
vt -0.01924 0.00000
vn 0.0498 -0.8646 -0.5000
f 328/328/110 329/329/110 330/330/110
v -0.05498 2.01866 0.00000
v -0.28411 2.01648 -0.01905
v -0.05562 2.02964 -0.01905
vt -0.01924 0.00000
vt -0.09944 -0.00667
vt -0.01947 -0.00667
vn 0.0498 -0.8646 -0.5000
f 331/331/111 332/332/111 333/333/111
v -0.05498 2.01866 0.00000
v -0.05562 2.02964 -0.01905
v -0.05625 2.04062 0.00000
vt 0.00000 0.70653
vt -0.00667 0.71037
vt 0.00000 0.71422
vn 0.9983 0.0575 -0.0000
f 334/334/112 335/335/112 336/336/112
v -0.28411 2.01648 -0.01905
v -0.28474 2.02746 0.00000
v -0.28538 2.03845 -0.01905
vt -0.00667 0.70577
vt 0.00000 0.70961
vt -0.00667 0.71346
vn -0.9983 -0.0575 0.0000
f 337/337/113 338/338/113 339/339/113
v -0.28411 2.01648 -0.01905
v -0.28538 2.03845 -0.01905
v -0.05562 2.02964 -0.01905
vt -0.09944 0.70577
vt -0.09988 0.71346
vt -0.01947 0.71037
vn 0.0000 0.0000 -1.0000
f 340/340/114 341/341/114 342/342/114
v -0.05562 2.02964 -0.01905
v -0.28538 2.03845 -0.01905
v -0.05688 2.05160 -0.01905
vt -0.01947 0.71037
vt -0.09988 0.71346
vt -0.01991 0.71806
vn 0.0000 -0.0000 -1.0000
f 343/343/115 344/344/115 345/345/115
v -0.05562 2.02964 -0.01905
v -0.05688 2.05160 -0.01905
v -0.05625 2.04062 0.00000
vt -0.00667 0.71037
vt -0.00667 0.71806
vt 0.00000 0.71422
vn 0.9983 0.0575 -0.0000
f 346/346/116 347/347/116 348/348/116
v -0.28538 2.03845 -0.01905
v -0.28474 2.02746 0.00000
v -0.28601 2.04943 0.00000
vt -0.00667 0.71346
vt 0.00000 0.70961
vt 0.00000 0.71730
vn -0.9983 -0.0575 0.0000
f 349/349/117 350/350/117 351/351/117
v -0.28538 2.03845 -0.01905
v -0.28601 2.04943 0.00000
v -0.05688 2.05160 -0.01905
vt -0.09988 -0.00667
vt -0.10010 0.00000
vt -0.01991 -0.00667
vn -0.0498 0.8646 -0.5000
f 352/352/118 353/353/118 354/354/118
v -0.05688 2.05160 -0.01905
v -0.28601 2.04943 0.00000
v -0.05751 2.06258 0.00000
vt -0.01991 -0.00667
vt -0.10010 0.00000
vt -0.02013 0.00000
vn -0.0498 0.8646 -0.5000
f 355/355/119 356/356/119 357/357/119
v -0.05688 2.05160 -0.01905
v -0.05751 2.06258 0.00000
v -0.05625 2.04062 0.00000
vt -0.00667 0.71806
vt 0.00000 0.72190
vt 0.00000 0.71422
vn 0.9983 0.0575 0.0000
f 358/358/120 359/359/120 360/360/120
v -0.28601 2.04943 0.00000
v -0.28474 2.02746 0.00000
v -0.28538 2.03845 0.01905
vt 0.00000 0.71730
vt 0.00000 0.70961
vt 0.00667 0.71346
vn -0.9983 -0.0575 -0.0000
f 361/361/121 362/362/121 363/363/121
v -0.28601 2.04943 0.00000
v -0.28538 2.03845 0.01905
v -0.05751 2.06258 0.00000
vt -0.10010 0.00000
vt -0.09988 0.00667
vt -0.02013 0.00000
vn -0.0498 0.8646 0.5000
f 364/364/122 365/365/122 366/366/122
v -0.05751 2.06258 0.00000
v -0.28538 2.03845 0.01905
v -0.05688 2.05160 0.01905
vt -0.02013 0.00000
vt -0.09988 0.00667
vt -0.01991 0.00667
vn -0.0498 0.8646 0.5000
f 367/367/123 368/368/123 369/369/123
v -0.05751 2.06258 0.00000
v -0.05688 2.05160 0.01905
v -0.05625 2.04062 0.00000
vt 0.00000 0.72190
vt 0.00667 0.71806
vt 0.00000 0.71422
vn 0.9983 0.0575 -0.0000
f 370/370/124 371/371/124 372/372/124
v -0.28538 2.03845 0.01905
v -0.28474 2.02746 0.00000
v -0.28411 2.01648 0.01905
vt 0.00667 0.71346
vt 0.00000 0.70961
vt 0.00667 0.70577
vn -0.9983 -0.0575 -0.0000
f 373/373/125 374/374/125 375/375/125
v -0.28538 2.03845 0.01905
v -0.28411 2.01648 0.01905
v -0.05688 2.05160 0.01905
vt -0.09988 0.71346
vt -0.09944 0.70577
vt -0.01991 0.71806
vn -0.0000 0.0000 1.0000
f 376/376/126 377/377/126 378/378/126
v -0.05688 2.05160 0.01905
v -0.28411 2.01648 0.01905
v -0.05562 2.02964 0.01905
vt -0.01991 0.71806
vt -0.09944 0.70577
vt -0.01947 0.71037
vn -0.0000 0.0000 1.0000
f 379/379/127 380/380/127 381/381/127
v -0.05688 2.05160 0.01905
v -0.05562 2.02964 0.01905
v -0.05625 2.04062 0.00000
vt 0.00667 0.71806
vt 0.00667 0.71037
vt 0.00000 0.71422
vn 0.9983 0.0575 0.0000
f 382/382/128 383/383/128 384/384/128
v -0.28411 2.01648 0.01905
v -0.28474 2.02746 0.00000
v -0.28348 2.00550 0.00000
vt 0.00667 0.70577
vt 0.00000 0.70961
vt 0.00000 0.70193
vn -0.9983 -0.0575 -0.0000
f 385/385/129 386/386/129 387/387/129
v -0.28411 2.01648 0.01905
v -0.28348 2.00550 0.00000
v -0.05562 2.02964 0.01905
vt -0.09944 0.00667
vt -0.09922 0.00000
vt -0.01947 0.00667
vn 0.0498 -0.8646 0.5000
f 388/388/130 389/389/130 390/390/130
v -0.05562 2.02964 0.01905
v -0.28348 2.00550 0.00000
v -0.05498 2.01866 0.00000
vt -0.01947 0.00667
vt -0.09922 0.00000
vt -0.01924 0.00000
vn 0.0498 -0.8646 0.5000
f 391/391/131 392/392/131 393/393/131
v -0.05562 2.02964 0.01905
v -0.05498 2.01866 0.00000
v -0.05625 2.04062 0.00000
vt 0.00667 0.71037
vt 0.00000 0.70653
vt 0.00000 0.71422
vn 0.9983 0.0575 0.0000
f 394/394/132 395/395/132 396/396/132
v 0.48551 1.32007 -0.00000
v 0.46377 1.32346 -0.00000
v 0.47464 1.32177 -0.01905
vt 0.16993 -0.00000
vt 0.16232 -0.00000
vt 0.16612 -0.00667
vn -0.1542 -0.9880 -0.0000
f 397/397/133 398/398/133 399/399/133
v 0.48551 1.32007 -0.00000
v 0.47464 1.32177 -0.01905
v 0.56437 1.82531 0.00000
vt -0.00000 0.46203
vt -0.00667 0.46262
vt 0.00000 0.63886
vn 0.8557 -0.1336 -0.5000
f 400/400/134 401/401/134 402/402/134
v 0.56437 1.82531 0.00000
v 0.47464 1.32177 -0.01905
v 0.55350 1.82700 -0.01905
vt 0.00000 0.63886
vt -0.00667 0.46262
vt -0.00667 0.63945
vn 0.8557 -0.1336 -0.5000
f 403/403/135 404/404/135 405/405/135
v 0.56437 1.82531 0.00000
v 0.55350 1.82700 -0.01905
v 0.54263 1.82870 0.00000
vt 0.19753 0.00000
vt 0.19373 -0.00667
vt 0.18992 0.00000
vn 0.1542 0.9880 0.0000
f 406/406/136 407/407/136 408/408/136
v 0.47464 1.32177 -0.01905
v 0.46377 1.32346 -0.00000
v 0.45291 1.32516 -0.01905
vt 0.16612 -0.00667
vt 0.16232 -0.00000
vt 0.15852 -0.00667
vn -0.1542 -0.9880 0.0000
f 409/409/137 410/410/137 411/411/137
v 0.47464 1.32177 -0.01905
v 0.45291 1.32516 -0.01905
v 0.55350 1.82700 -0.01905
vt 0.16612 0.46262
vt 0.15852 0.46381
vt 0.19373 0.63945
vn 0.0000 0.0000 -1.0000
f 412/412/138 413/413/138 414/414/138
v 0.55350 1.82700 -0.01905
v 0.45291 1.32516 -0.01905
v 0.53176 1.83040 -0.01905
vt 0.19373 0.63945
vt 0.15852 0.46381
vt 0.18612 0.64064
vn 0.0000 0.0000 -1.0000
f 415/415/139 416/416/139 417/417/139
v 0.55350 1.82700 -0.01905
v 0.53176 1.83040 -0.01905
v 0.54263 1.82870 0.00000
vt 0.19373 -0.00667
vt 0.18612 -0.00667
vt 0.18992 0.00000
vn 0.1542 0.9880 -0.0000
f 418/418/140 419/419/140 420/420/140
v 0.45291 1.32516 -0.01905
v 0.46377 1.32346 -0.00000
v 0.44204 1.32686 -0.00000
vt 0.15852 -0.00667
vt 0.16232 -0.00000
vt 0.15471 -0.00000
vn -0.1542 -0.9880 0.0000
f 421/421/141 422/422/141 423/423/141
v 0.45291 1.32516 -0.01905
v 0.44204 1.32686 -0.00000
v 0.53176 1.83040 -0.01905
vt -0.00667 0.46381
vt -0.00000 0.46440
vt -0.00667 0.64064
vn -0.8557 0.1336 -0.5000
f 424/424/142 425/425/142 426/426/142
v 0.53176 1.83040 -0.01905
v 0.44204 1.32686 -0.00000
v 0.52090 1.83209 0.00000
vt -0.00667 0.64064
vt -0.00000 0.46440
vt 0.00000 0.64123
vn -0.8557 0.1336 -0.5000
f 427/427/143 428/428/143 429/429/143
v 0.53176 1.83040 -0.01905
v 0.52090 1.83209 0.00000
v 0.54263 1.82870 0.00000
vt 0.18612 -0.00667
vt 0.18231 0.00000
vt 0.18992 0.00000
vn 0.1542 0.9880 0.0000
f 430/430/144 431/431/144 432/432/144
v 0.44204 1.32686 -0.00000
v 0.46377 1.32346 -0.00000
v 0.45291 1.32516 0.01905
vt 0.15471 -0.00000
vt 0.16232 -0.00000
vt 0.15852 0.00667
vn -0.1542 -0.9880 -0.0000
f 433/433/145 434/434/145 435/435/145
v 0.44204 1.32686 -0.00000
v 0.45291 1.32516 0.01905
v 0.52090 1.83209 0.00000
vt -0.00000 0.46440
vt 0.00667 0.46381
vt 0.00000 0.64123
vn -0.8557 0.1336 0.5000
f 436/436/146 437/437/146 438/438/146
v 0.52090 1.83209 0.00000
v 0.45291 1.32516 0.01905
v 0.53176 1.83040 0.01905
vt 0.00000 0.64123
vt 0.00667 0.46381
vt 0.00667 0.64064
vn -0.8557 0.1336 0.5000
f 439/439/147 440/440/147 441/441/147
v 0.52090 1.83209 0.00000
v 0.53176 1.83040 0.01905
v 0.54263 1.82870 0.00000
vt 0.18231 0.00000
vt 0.18612 0.00667
vt 0.18992 0.00000
vn 0.1542 0.9880 0.0000
f 442/442/148 443/443/148 444/444/148
v 0.45291 1.32516 0.01905
v 0.46377 1.32346 -0.00000
v 0.47464 1.32177 0.01905
vt 0.15852 0.00667
vt 0.16232 -0.00000
vt 0.16612 0.00667
vn -0.1542 -0.9880 0.0000
f 445/445/149 446/446/149 447/447/149
v 0.45291 1.32516 0.01905
v 0.47464 1.32177 0.01905
v 0.53176 1.83040 0.01905
vt 0.15852 0.46381
vt 0.16612 0.46262
vt 0.18612 0.64064
vn -0.0000 -0.0000 1.0000
f 448/448/150 449/449/150 450/450/150
v 0.53176 1.83040 0.01905
v 0.47464 1.32177 0.01905
v 0.55350 1.82700 0.01905
vt 0.18612 0.64064
vt 0.16612 0.46262
vt 0.19373 0.63945
vn -0.0000 0.0000 1.0000
f 451/451/151 452/452/151 453/453/151
v 0.53176 1.83040 0.01905
v 0.55350 1.82700 0.01905
v 0.54263 1.82870 0.00000
vt 0.18612 0.00667
vt 0.19373 0.00667
vt 0.18992 0.00000
vn 0.1542 0.9880 0.0000
f 454/454/152 455/455/152 456/456/152
v 0.47464 1.32177 0.01905
v 0.46377 1.32346 -0.00000
v 0.48551 1.32007 -0.00000
vt 0.16612 0.00667
vt 0.16232 -0.00000
vt 0.16993 -0.00000
vn -0.1542 -0.9880 0.0000
f 457/457/153 458/458/153 459/459/153
v 0.47464 1.32177 0.01905
v 0.48551 1.32007 -0.00000
v 0.55350 1.82700 0.01905
vt 0.00667 0.46262
vt -0.00000 0.46203
vt 0.00667 0.63945
vn 0.8557 -0.1336 0.5000
f 460/460/154 461/461/154 462/462/154
v 0.55350 1.82700 0.01905
v 0.48551 1.32007 -0.00000
v 0.56437 1.82531 0.00000
vt 0.00667 0.63945
vt -0.00000 0.46203
vt 0.00000 0.63886
vn 0.8557 -0.1336 0.5000
f 463/463/155 464/464/155 465/465/155
v 0.55350 1.82700 0.01905
v 0.56437 1.82531 0.00000
v 0.54263 1.82870 0.00000
vt 0.19373 0.00667
vt 0.19753 0.00000
vt 0.18992 0.00000
vn 0.1542 0.9880 -0.0000
f 466/466/156 467/467/156 468/468/156
v 0.54785 1.80959 0.00000
v 0.54092 1.83047 0.00000
v 0.54438 1.82003 -0.01905
vt 0.00000 0.63336
vt 0.00000 0.64066
vt -0.00667 0.63701
vn -0.9490 -0.3154 0.0000
f 469/469/157 470/470/157 471/471/157
v 0.54785 1.80959 0.00000
v 0.54438 1.82003 -0.01905
v 0.56763 1.81616 0.00000
vt 0.19175 0.00000
vt 0.19053 -0.00667
vt 0.19867 0.00000
vn 0.2731 -0.8218 -0.5000
f 472/472/158 473/473/158 474/474/158
v 0.56763 1.81616 0.00000
v 0.54438 1.82003 -0.01905
v 0.56416 1.82660 -0.01905
vt 0.19867 0.00000
vt 0.19053 -0.00667
vt 0.19746 -0.00667
vn 0.2731 -0.8218 -0.5000
f 475/475/159 476/476/159 477/477/159
v 0.56763 1.81616 0.00000
v 0.56416 1.82660 -0.01905
v 0.56069 1.83704 0.00000
vt 0.00000 0.63566
vt -0.00667 0.63931
vt 0.00000 0.64296
vn 0.9490 0.3154 0.0000
f 478/478/160 479/479/160 480/480/160
v 0.54438 1.82003 -0.01905
v 0.54092 1.83047 0.00000
v 0.53745 1.84090 -0.01905
vt -0.00667 0.63701
vt 0.00000 0.64066
vt -0.00667 0.64432
vn -0.9490 -0.3154 -0.0000
f 481/481/161 482/482/161 483/483/161
v 0.54438 1.82003 -0.01905
v 0.53745 1.84090 -0.01905
v 0.56416 1.82660 -0.01905
vt 0.19053 0.63701
vt 0.18811 0.64432
vt 0.19746 0.63931
vn 0.0000 0.0000 -1.0000
f 484/484/162 485/485/162 486/486/162
v 0.56416 1.82660 -0.01905
v 0.53745 1.84090 -0.01905
v 0.55723 1.84748 -0.01905
vt 0.19746 0.63931
vt 0.18811 0.64432
vt 0.19503 0.64662
vn 0.0000 0.0000 -1.0000
f 487/487/163 488/488/163 489/489/163
v 0.56416 1.82660 -0.01905
v 0.55723 1.84748 -0.01905
v 0.56069 1.83704 0.00000
vt -0.00667 0.63931
vt -0.00667 0.64662
vt 0.00000 0.64296
vn 0.9490 0.3154 0.0000
f 490/490/164 491/491/164 492/492/164
v 0.53745 1.84090 -0.01905
v 0.54092 1.83047 0.00000
v 0.53398 1.85134 0.00000
vt -0.00667 0.64432
vt 0.00000 0.64066
vt 0.00000 0.64797
vn -0.9490 -0.3154 -0.0000
f 493/493/165 494/494/165 495/495/165
v 0.53745 1.84090 -0.01905
v 0.53398 1.85134 0.00000
v 0.55723 1.84748 -0.01905
vt 0.18811 -0.00667
vt 0.18689 0.00000
vt 0.19503 -0.00667
vn -0.2731 0.8218 -0.5000
f 496/496/166 497/497/166 498/498/166
v 0.55723 1.84748 -0.01905
v 0.53398 1.85134 0.00000
v 0.55376 1.85792 0.00000
vt 0.19503 -0.00667
vt 0.18689 0.00000
vt 0.19381 0.00000
vn -0.2731 0.8218 -0.5000
f 499/499/167 500/500/167 501/501/167
v 0.55723 1.84748 -0.01905
v 0.55376 1.85792 0.00000
v 0.56069 1.83704 0.00000
vt -0.00667 0.64662
vt 0.00000 0.65027
vt 0.00000 0.64296
vn 0.9490 0.3154 -0.0000
f 502/502/168 503/503/168 504/504/168
v 0.53398 1.85134 0.00000
v 0.54092 1.83047 0.00000
v 0.53745 1.84090 0.01905
vt 0.00000 0.64797
vt 0.00000 0.64066
vt 0.00667 0.64432
vn -0.9490 -0.3154 0.0000
f 505/505/169 506/506/169 507/507/169
v 0.53398 1.85134 0.00000
v 0.53745 1.84090 0.01905
v 0.55376 1.85792 0.00000
vt 0.18689 0.00000
vt 0.18811 0.00667
vt 0.19381 0.00000
vn -0.2731 0.8218 0.5000
f 508/508/170 509/509/170 510/510/170
v 0.55376 1.85792 0.00000
v 0.53745 1.84090 0.01905
v 0.55723 1.84748 0.01905
vt 0.19381 0.00000
vt 0.18811 0.00667
vt 0.19503 0.00667
vn -0.2731 0.8218 0.5000
f 511/511/171 512/512/171 513/513/171
v 0.55376 1.85792 0.00000
v 0.55723 1.84748 0.01905
v 0.56069 1.83704 0.00000
vt 0.00000 0.65027
vt 0.00667 0.64662
vt 0.00000 0.64296
vn 0.9490 0.3154 0.0000
f 514/514/172 515/515/172 516/516/172
v 0.53745 1.84090 0.01905
v 0.54092 1.83047 0.00000
v 0.54438 1.82003 0.01905
vt 0.00667 0.64432
vt 0.00000 0.64066
vt 0.00667 0.63701
vn -0.9490 -0.3154 0.0000
f 517/517/173 518/518/173 519/519/173
v 0.53745 1.84090 0.01905
v 0.54438 1.82003 0.01905
v 0.55723 1.84748 0.01905
vt 0.18811 0.64432
vt 0.19053 0.63701
vt 0.19503 0.64662
vn -0.0000 0.0000 1.0000
f 520/520/174 521/521/174 522/522/174
v 0.55723 1.84748 0.01905
v 0.54438 1.82003 0.01905
v 0.56416 1.82660 0.01905
vt 0.19503 0.64662
vt 0.19053 0.63701
vt 0.19746 0.63931
vn -0.0000 0.0000 1.0000
f 523/523/175 524/524/175 525/525/175
v 0.55723 1.84748 0.01905
v 0.56416 1.82660 0.01905
v 0.56069 1.83704 0.00000
vt 0.00667 0.64662
vt 0.00667 0.63931
vt 0.00000 0.64296
vn 0.9490 0.3154 -0.0000
f 526/526/176 527/527/176 528/528/176
v 0.54438 1.82003 0.01905
v 0.54092 1.83047 0.00000
v 0.54785 1.80959 0.00000
vt 0.00667 0.63701
vt 0.00000 0.64066
vt 0.00000 0.63336
vn -0.9490 -0.3154 0.0000
f 529/529/177 530/530/177 531/531/177
v 0.54438 1.82003 0.01905
v 0.54785 1.80959 0.00000
v 0.56416 1.82660 0.01905
vt 0.19053 0.00667
vt 0.19175 0.00000
vt 0.19746 0.00667
vn 0.2731 -0.8218 0.5000
f 532/532/178 533/533/178 534/534/178
v 0.56416 1.82660 0.01905
v 0.54785 1.80959 0.00000
v 0.56763 1.81616 0.00000
vt 0.19746 0.00667
vt 0.19175 0.00000
vt 0.19867 0.00000
vn 0.2731 -0.8218 0.5000
f 535/535/179 536/536/179 537/537/179
v 0.56416 1.82660 0.01905
v 0.56763 1.81616 0.00000
v 0.56069 1.83704 0.00000
vt 0.00667 0.63931
vt 0.00000 0.63566
vt 0.00000 0.64296
vn 0.9490 0.3154 -0.0000
f 538/538/180 539/539/180 540/540/180
v 1.35244 1.79968 -0.00000
v 1.33044 1.79943 -0.00000
v 1.34144 1.79955 -0.01905
vt 0.47335 -0.00000
vt 0.46565 -0.00000
vt 0.46950 -0.00667
vn 0.0115 -0.9999 0.0000
f 541/541/181 542/542/181 543/543/181
v 1.35244 1.79968 -0.00000
v 1.34144 1.79955 -0.01905
v 1.34687 2.28522 0.00000
vt -0.00000 0.62989
vt -0.00667 0.62984
vt 0.00000 0.79983
vn 0.8660 0.0099 -0.5000
f 544/544/182 545/545/182 546/546/182
v 1.34687 2.28522 0.00000
v 1.34144 1.79955 -0.01905
v 1.33587 2.28510 -0.01905
vt 0.00000 0.79983
vt -0.00667 0.62984
vt -0.00667 0.79978
vn 0.8660 0.0099 -0.5000
f 547/547/183 548/548/183 549/549/183
v 1.34687 2.28522 0.00000
v 1.33587 2.28510 -0.01905
v 1.32487 2.28497 0.00000
vt 0.47140 0.00000
vt 0.46755 -0.00667
vt 0.46370 0.00000
vn -0.0115 0.9999 -0.0000
f 550/550/184 551/551/184 552/552/184
v 1.34144 1.79955 -0.01905
v 1.33044 1.79943 -0.00000
v 1.31944 1.79930 -0.01905
vt 0.46950 -0.00667
vt 0.46565 -0.00000
vt 0.46180 -0.00667
vn 0.0115 -0.9999 0.0000
f 553/553/185 554/554/185 555/555/185
v 1.34144 1.79955 -0.01905
v 1.31944 1.79930 -0.01905
v 1.33587 2.28510 -0.01905
vt 0.46950 0.62984
vt 0.46180 0.62976
vt 0.46755 0.79978
vn -0.0000 0.0000 -1.0000
f 556/556/186 557/557/186 558/558/186
v 1.33587 2.28510 -0.01905
v 1.31944 1.79930 -0.01905
v 1.31387 2.28484 -0.01905
vt 0.46755 0.79978
vt 0.46180 0.62976
vt 0.45985 0.79970
vn -0.0000 0.0000 -1.0000
f 559/559/187 560/560/187 561/561/187
v 1.33587 2.28510 -0.01905
v 1.31387 2.28484 -0.01905
v 1.32487 2.28497 0.00000
vt 0.46755 -0.00667
vt 0.45985 -0.00667
vt 0.46370 0.00000
vn -0.0115 0.9999 -0.0000
f 562/562/188 563/563/188 564/564/188
v 1.31944 1.79930 -0.01905
v 1.33044 1.79943 -0.00000
v 1.30844 1.79918 -0.00000
vt 0.46180 -0.00667
vt 0.46565 -0.00000
vt 0.45795 -0.00000
vn 0.0115 -0.9999 0.0000
f 565/565/189 566/566/189 567/567/189
v 1.31944 1.79930 -0.01905
v 1.30844 1.79918 -0.00000
v 1.31387 2.28484 -0.01905
vt -0.00667 0.62976
vt -0.00000 0.62971
vt -0.00667 0.79970
vn -0.8660 -0.0099 -0.5000
f 568/568/190 569/569/190 570/570/190
v 1.31387 2.28484 -0.01905
v 1.30844 1.79918 -0.00000
v 1.30287 2.28472 0.00000
vt -0.00667 0.79970
vt -0.00000 0.62971
vt 0.00000 0.79965
vn -0.8660 -0.0099 -0.5000
f 571/571/191 572/572/191 573/573/191
v 1.31387 2.28484 -0.01905
v 1.30287 2.28472 0.00000
v 1.32487 2.28497 0.00000
vt 0.45985 -0.00667
vt 0.45600 0.00000
vt 0.46370 0.00000
vn -0.0115 0.9999 -0.0000
f 574/574/192 575/575/192 576/576/192
v 1.30844 1.79918 -0.00000
v 1.33044 1.79943 -0.00000
v 1.31944 1.79930 0.01905
vt 0.45795 -0.00000
vt 0.46565 -0.00000
vt 0.46180 0.00667
vn 0.0115 -0.9999 0.0000
f 577/577/193 578/578/193 579/579/193
v 1.30844 1.79918 -0.00000
v 1.31944 1.79930 0.01905
v 1.30287 2.28472 0.00000
vt -0.00000 0.62971
vt 0.00667 0.62976
vt 0.00000 0.79965
vn -0.8660 -0.0099 0.5000
f 580/580/194 581/581/194 582/582/194
v 1.30287 2.28472 0.00000
v 1.31944 1.79930 0.01905
v 1.31387 2.28484 0.01905
vt 0.00000 0.79965
vt 0.00667 0.62976
vt 0.00667 0.79970
vn -0.8660 -0.0099 0.5000
f 583/583/195 584/584/195 585/585/195
v 1.30287 2.28472 0.00000
v 1.31387 2.28484 0.01905
v 1.32487 2.28497 0.00000
vt 0.45600 0.00000
vt 0.45985 0.00667
vt 0.46370 0.00000
vn -0.0115 0.9999 0.0000
f 586/586/196 587/587/196 588/588/196
v 1.31944 1.79930 0.01905
v 1.33044 1.79943 -0.00000
v 1.34144 1.79955 0.01905
vt 0.46180 0.00667
vt 0.46565 -0.00000
vt 0.46950 0.00667
vn 0.0115 -0.9999 0.0000
f 589/589/197 590/590/197 591/591/197
v 1.31944 1.79930 0.01905
v 1.34144 1.79955 0.01905
v 1.31387 2.28484 0.01905
vt 0.46180 0.62976
vt 0.46950 0.62984
vt 0.45985 0.79970
vn -0.0000 -0.0000 1.0000
f 592/592/198 593/593/198 594/594/198
v 1.31387 2.28484 0.01905
v 1.34144 1.79955 0.01905
v 1.33587 2.28510 0.01905
vt 0.45985 0.79970
vt 0.46950 0.62984
vt 0.46755 0.79978
vn -0.0000 -0.0000 1.0000
f 595/595/199 596/596/199 597/597/199
v 1.31387 2.28484 0.01905
v 1.33587 2.28510 0.01905
v 1.32487 2.28497 0.00000
vt 0.45985 0.00667
vt 0.46755 0.00667
vt 0.46370 0.00000
vn -0.0115 0.9999 0.0000
f 598/598/200 599/599/200 600/600/200
v 1.34144 1.79955 0.01905
v 1.33044 1.79943 -0.00000
v 1.35244 1.79968 -0.00000
vt 0.46950 0.00667
vt 0.46565 -0.00000
vt 0.47335 -0.00000
vn 0.0115 -0.9999 0.0000
f 601/601/201 602/602/201 603/603/201
v 1.34144 1.79955 0.01905
v 1.35244 1.79968 -0.00000
v 1.33587 2.28510 0.01905
vt 0.00667 0.62984
vt -0.00000 0.62989
vt 0.00667 0.79978
vn 0.8660 0.0099 0.5000
f 604/604/202 605/605/202 606/606/202
v 1.33587 2.28510 0.01905
v 1.35244 1.79968 -0.00000
v 1.34687 2.28522 0.00000
vt 0.00667 0.79978
vt -0.00000 0.62989
vt 0.00000 0.79983
vn 0.8660 0.0099 0.5000
f 607/607/203 608/608/203 609/609/203
v 1.33587 2.28510 0.01905
v 1.34687 2.28522 0.00000
v 1.32487 2.28497 0.00000
vt 0.46755 0.00667
vt 0.47140 0.00000
vt 0.46370 0.00000
vn -0.0115 0.9999 0.0000
f 610/610/204 611/611/204 612/612/204
v 1.30573 2.29776 0.00000
v 1.30220 2.31948 0.00000
v 1.30397 2.30862 -0.01905
vt 0.00000 0.80422
vt 0.00000 0.81182
vt -0.00667 0.80802
vn -0.9871 -0.1604 -0.0000
f 613/613/205 614/614/205 615/615/205
v 1.30573 2.29776 0.00000
v 1.30397 2.30862 -0.01905
v 1.45792 2.32249 0.00000
vt 0.45701 0.00000
vt 0.45639 -0.00667
vt 0.51027 0.00000
vn 0.1389 -0.8548 -0.5000
f 616/616/206 617/617/206 618/618/206
v 1.45792 2.32249 0.00000
v 1.30397 2.30862 -0.01905
v 1.45616 2.33335 -0.01905
vt 0.51027 0.00000
vt 0.45639 -0.00667
vt 0.50966 -0.00667
vn 0.1389 -0.8548 -0.5000
f 619/619/207 620/620/207 621/621/207
v 1.45792 2.32249 0.00000
v 1.45616 2.33335 -0.01905
v 1.45440 2.34420 0.00000
vt 0.00000 0.81287
vt -0.00667 0.81667
vt 0.00000 0.82047
vn 0.9871 0.1604 0.0000
f 622/622/208 623/623/208 624/624/208
v 1.30397 2.30862 -0.01905
v 1.30220 2.31948 0.00000
v 1.30044 2.33034 -0.01905
vt -0.00667 0.80802
vt 0.00000 0.81182
vt -0.00667 0.81562
vn -0.9871 -0.1604 -0.0000
f 625/625/209 626/626/209 627/627/209
v 1.30397 2.30862 -0.01905
v 1.30044 2.33034 -0.01905
v 1.45616 2.33335 -0.01905
vt 0.45639 0.80802
vt 0.45515 0.81562
vt 0.50966 0.81667
vn 0.0000 0.0000 -1.0000
f 628/628/210 629/629/210 630/630/210
v 1.45616 2.33335 -0.01905
v 1.30044 2.33034 -0.01905
v 1.45263 2.35506 -0.01905
vt 0.50966 0.81667
vt 0.45515 0.81562
vt 0.50842 0.82427
vn -0.0000 0.0000 -1.0000
f 631/631/211 632/632/211 633/633/211
v 1.45616 2.33335 -0.01905
v 1.45263 2.35506 -0.01905
v 1.45440 2.34420 0.00000
vt -0.00667 0.81667
vt -0.00667 0.82427
vt 0.00000 0.82047
vn 0.9871 0.1604 0.0000
f 634/634/212 635/635/212 636/636/212
v 1.30044 2.33034 -0.01905
v 1.30220 2.31948 0.00000
v 1.29868 2.34119 0.00000
vt -0.00667 0.81562
vt 0.00000 0.81182
vt 0.00000 0.81942
vn -0.9871 -0.1604 -0.0000
f 637/637/213 638/638/213 639/639/213
v 1.30044 2.33034 -0.01905
v 1.29868 2.34119 0.00000
v 1.45263 2.35506 -0.01905
vt 0.45515 -0.00667
vt 0.45454 0.00000
vt 0.50842 -0.00667
vn -0.1389 0.8548 -0.5000
f 640/640/214 641/641/214 642/642/214
v 1.45263 2.35506 -0.01905
v 1.29868 2.34119 0.00000
v 1.45087 2.36592 0.00000
vt 0.50842 -0.00667
vt 0.45454 0.00000
vt 0.50780 0.00000
vn -0.1389 0.8548 -0.5000
f 643/643/215 644/644/215 645/645/215
v 1.45263 2.35506 -0.01905
v 1.45087 2.36592 0.00000
v 1.45440 2.34420 0.00000
vt -0.00667 0.82427
vt 0.00000 0.82807
vt 0.00000 0.82047
vn 0.9871 0.1604 0.0000
f 646/646/216 647/647/216 648/648/216
v 1.29868 2.34119 0.00000
v 1.30220 2.31948 0.00000
v 1.30044 2.33034 0.01905
vt 0.00000 0.81942
vt 0.00000 0.81182
vt 0.00667 0.81562
vn -0.9871 -0.1604 0.0000
f 649/649/217 650/650/217 651/651/217
v 1.29868 2.34119 0.00000
v 1.30044 2.33034 0.01905
v 1.45087 2.36592 0.00000
vt 0.45454 0.00000
vt 0.45515 0.00667
vt 0.50780 0.00000
vn -0.1389 0.8548 0.5000
f 652/652/218 653/653/218 654/654/218
v 1.45087 2.36592 0.00000
v 1.30044 2.33034 0.01905
v 1.45263 2.35506 0.01905
vt 0.50780 0.00000
vt 0.45515 0.00667
vt 0.50842 0.00667
vn -0.1389 0.8548 0.5000
f 655/655/219 656/656/219 657/657/219
v 1.45087 2.36592 0.00000
v 1.45263 2.35506 0.01905
v 1.45440 2.34420 0.00000
vt 0.00000 0.82807
vt 0.00667 0.82427
vt 0.00000 0.82047
vn 0.9871 0.1604 -0.0000
f 658/658/220 659/659/220 660/660/220
v 1.30044 2.33034 0.01905
v 1.30220 2.31948 0.00000
v 1.30397 2.30862 0.01905
vt 0.00667 0.81562
vt 0.00000 0.81182
vt 0.00667 0.80802
vn -0.9871 -0.1604 0.0000
f 661/661/221 662/662/221 663/663/221
v 1.30044 2.33034 0.01905
v 1.30397 2.30862 0.01905
v 1.45263 2.35506 0.01905
vt 0.45515 0.81562
vt 0.45639 0.80802
vt 0.50842 0.82427
vn -0.0000 0.0000 1.0000
f 664/664/222 665/665/222 666/666/222
v 1.45263 2.35506 0.01905
v 1.30397 2.30862 0.01905
v 1.45616 2.33335 0.01905
vt 0.50842 0.82427
vt 0.45639 0.80802
vt 0.50966 0.81667
vn -0.0000 0.0000 1.0000
f 667/667/223 668/668/223 669/669/223
v 1.45263 2.35506 0.01905
v 1.45616 2.33335 0.01905
v 1.45440 2.34420 0.00000
vt 0.00667 0.82427
vt 0.00667 0.81667
vt 0.00000 0.82047
vn 0.9871 0.1604 -0.0000
f 670/670/224 671/671/224 672/672/224
v 1.30397 2.30862 0.01905
v 1.30220 2.31948 0.00000
v 1.30573 2.29776 0.00000
vt 0.00667 0.80802
vt 0.00000 0.81182
vt 0.00000 0.80422
vn -0.9871 -0.1604 0.0000
f 673/673/225 674/674/225 675/675/225
v 1.30397 2.30862 0.01905
v 1.30573 2.29776 0.00000
v 1.45616 2.33335 0.01905
vt 0.45639 0.00667
vt 0.45701 0.00000
vt 0.50966 0.00667
vn 0.1389 -0.8548 0.5000
f 676/676/226 677/677/226 678/678/226
v 1.45616 2.33335 0.01905
v 1.30573 2.29776 0.00000
v 1.45792 2.32249 0.00000
vt 0.50966 0.00667
vt 0.45701 0.00000
vt 0.51027 0.00000
vn 0.1389 -0.8548 0.5000
f 679/679/227 680/680/227 681/681/227
v 1.45616 2.33335 0.01905
v 1.45792 2.32249 0.00000
v 1.45440 2.34420 0.00000
vt 0.00667 0.81667
vt 0.00000 0.81287
vt 0.00000 0.82047
vn 0.9871 0.1604 -0.0000
f 682/682/228 683/683/228 684/684/228